<?xml version="1.0" encoding="utf-8"?>
<!-- Generator: Adobe Illustrator 26.1.0, SVG Export Plug-In . SVG Version: 6.00 Build 0)  -->
<svg version="1.1" id="레이어_1" xmlns="http://www.w3.org/2000/svg" xmlns:xlink="http://www.w3.org/1999/xlink" x="0px"
	 y="0px" viewBox="0 0 103 40" style="enable-background:new 0 0 103 40;" xml:space="preserve">
<style type="text/css">
	.st0{fill:#3E3A39;}
	.st1{fill:#0079B3;}
	.st2{fill:#FDD000;}
	.st3{fill:#00A95F;}
	.st4{fill:#00A2DD;}
	.st5{fill:#717071;}
</style>
<g>
	<path class="st0" d="M58.42,24.84v-4.27l-2.7,0.02v9.73l-4.76,0.01v7.44h7.45V27.16h1.16v-2.32H58.42L58.42,24.84z M53.28,33.07
		h2.51v2.2h-2.51V33.07L53.28,33.07z"/>
	<polygon class="st0" points="51.96,20.58 51.96,22.4 54.5,22.4 54.5,24.48 52.38,24.48 54.49,28.23 52.85,29.51 50.62,26.2 
		48.21,29.51 46.66,28.23 48.85,24.54 46.66,24.54 46.66,22.44 49.2,22.44 49.2,20.58 51.96,20.58 	"/>
	<path class="st0" d="M68.32,26c0,2.12-1.74,3.84-3.89,3.84c-2.15,0-3.89-1.72-3.89-3.84c0-2.12,1.74-3.84,3.89-3.84
		C66.58,22.16,68.32,23.88,68.32,26L68.32,26z M64.53,24.42c-0.92,0-1.67,0.72-1.67,1.62c0,0.89,0.75,1.62,1.67,1.62
		c0.92,0,1.67-0.72,1.67-1.62C66.2,25.14,65.45,24.42,64.53,24.42L64.53,24.42z"/>
	<polygon class="st0" points="77.83,30.51 77.83,37.77 85.16,37.77 85.16,35.33 80.15,35.33 80.15,30.51 77.83,30.51 	"/>
	<polygon class="st0" points="86.81,22.47 94.22,22.47 94.22,24.78 89.14,24.78 89.14,27.1 94.15,27.1 94.15,29.23 86.83,29.23 
		86.81,22.47 	"/>
	<polygon class="st0" points="95.5,20.58 98.08,20.58 98.08,24.72 99.36,24.72 99.36,20.58 101.67,20.58 101.67,32.95 99.42,32.95 
		99.42,27.47 98.2,27.47 98.2,33.01 95.57,33.01 95.5,20.58 	"/>
	<path class="st0" d="M67.42,23.62l2.44-0.06v-2.93h2.57v12.2h-2.51v-4.57h-2.38 M69.8,25.39h-1.61v1.1h1.61V25.39L69.8,25.39z"/>
	<path class="st0" d="M81.14,25.56c0,2.12-1.74,3.84-3.89,3.84c-2.15,0-3.89-1.72-3.89-3.84c0-2.12,1.74-3.84,3.89-3.84
		C79.4,21.72,81.14,23.43,81.14,25.56L81.14,25.56z M77.35,23.97c-0.92,0-1.67,0.72-1.67,1.62c0,0.89,0.75,1.62,1.67,1.62
		c0.92,0,1.67-0.72,1.67-1.62C79.02,24.7,78.27,23.97,77.35,23.97L77.35,23.97z"/>
	<path class="st0" d="M80.24,23.18l2.44-0.06v-2.93h2.57v12.2h-2.51v-4.57h-2.38 M82.62,24.95h-1.61v1.1h1.61V24.95L82.62,24.95z"/>
	<path class="st1" d="M16.7,2.64l0.06,0.08l-0.08,0.12l-0.04,0.1l0.02,0.08v0.08v0.06v0.12l0.06,0.08h0.06h0.1h0.12l0.12,0.08
		l0.1,0.12v0.1l-0.02,0.06l-0.04,0.12v0.1l0.12,0.08l0.08,0.04c0,0,0.08,0.02,0.1,0.08c0.02,0.06,0.02,0.06,0.02,0.06l0.04,0.1
		L17.47,4.4l-0.02,0.08v0.08v0.1v0.08v0.08v0.08l0.06,0.08l0.06,0.04l0.04,0.1v0.06c0,0,0.02,0.04,0.02,0.1c0,0.06,0,0.1,0,0.16
		c0,0.06,0,0.06,0,0.06L17.61,5.6l-0.08,0.08l-0.04,0.08c0,0-0.02,0.06-0.04,0.12c-0.02,0.06-0.02,0.02-0.02,0.14
		c0,0.12,0,0.2,0,0.2l-0.02,0.12c0,0-0.02,0.08-0.04,0.16c-0.02,0.08-0.02,0.12-0.06,0.18c-0.04,0.06-0.08,0.12-0.1,0.18
		C17.2,6.89,17.2,6.99,17.2,6.99l-0.02,0.08c0,0,0.02,0.04-0.02,0.1c-0.04,0.06-0.08,0.12-0.08,0.12l-0.08,0.14l-0.04,0.14
		l0.02,0.12l0.06,0.08c0,0,0.1-0.02,0,0.12c-0.1,0.14-0.12,0.1-0.12,0.22c0,0.12,0,0.22,0,0.22l-0.04,0.14c0,0-0.02,0.02-0.08,0.06
		c-0.06,0.04-0.12,0.1-0.12,0.1l-0.14,0.08c0,0-0.06,0.02-0.13,0.08c-0.08,0.06-0.08,0.08-0.14,0.12c-0.06,0.04-0.08,0.1-0.08,0.1
		l-0.02,0.1c0,0-0.08-0.04-0.02,0.06c0.06,0.1,0.06,0.18,0.06,0.18l0.06,0.06h0.17l0.12-0.06l0.08-0.1l0.04-0.06l0.15-0.02
		l0.04,0.08c0.04,0.12,0.04,0.12,0.04,0.18c0,0.06,0,0.12,0,0.12v0.06l0.1,0.12l0.08,0.08c0.02,0.1-0.04,0.1-0.04,0.1
		c-0.15-0.06-0.23-0.08-0.23-0.08l-0.06-0.08l-0.06-0.02c0,0,0.02-0.02-0.06-0.02c-0.08,0-0.14-0.04-0.14-0.04l-0.06-0.02h-0.06
		l-0.04,0.08c0,0-0.02-0.08-0.06,0c-0.04,0.08,0.08,0.22,0.08,0.22s0.08,0,0.12,0.04c0.04,0.04-0.04,0.14-0.04,0.14l-0.06,0.04
		c0,0,0,0.02,0,0.08c0,0.06,0.04,0.06-0.02,0.12c-0.06,0.06-0.1,0.08-0.15,0.12c-0.06,0.04-0.31,0.06-0.31,0.06l-0.06,0.02
		c0,0-0.04-0.04-0.06,0.04c-0.02,0.08-0.04,0.14-0.04,0.14l-0.12,0.08l-0.04,0.1l-0.31-0.06l-0.02-0.06l-0.23,0.14
		c0,0,0.06-0.02-0.06,0.04c-0.12,0.06-0.19,0.08-0.19,0.08l-0.15-0.06h-0.06l-0.14-0.1h-0.37l-0.2-0.02l-0.09,0.02l-0.06-0.04
		l-0.17-0.18h-0.06h-0.08H13.3c0,0,0.04-0.04-0.08-0.04c-0.12,0-0.29-0.08-0.35-0.06c-0.06,0.02-0.14-0.1-0.14-0.1l-0.08-0.12
		l-0.06-0.04l-0.08-0.1c0,0-0.02,0-0.1-0.06c-0.08-0.06-0.08-0.06-0.08-0.06l-0.06-0.06c0,0-0.08-0.04-0.08-0.12
		c0-0.08,0-0.08,0-0.08l-0.06-0.12c0,0,0-0.08,0-0.14c0-0.06,0-0.06,0-0.06s0-0.04-0.06-0.08c-0.06-0.04,0,0.08-0.06-0.04
		c-0.06-0.12-0.06-0.12-0.06-0.12l-0.04-0.08l-0.04-0.1l-0.08-0.1l-0.08-0.29l-0.08-0.1L11.65,8.5V8.42l0.04-0.08V8.2l0.04-0.1
		l-0.06-0.08l-0.02-0.1l0.02-0.14l0.02-0.08V7.64V7.56c0,0-0.02,0-0.02-0.06c0-0.06,0-0.06-0.02-0.12c-0.02-0.06,0-0.06-0.02-0.2
		c-0.02-0.14-0.02-0.2-0.02-0.2l0.02-0.1l0.08-0.1l0.04-0.1l0.04-0.14l0.04-0.1l0.04-0.12l0.04-0.1l0.02-0.06V6.01l0.02-0.1
		l0.02-0.08v-0.1L12,5.62l0.04-0.1l0.02-0.08c0,0,0.02-0.02,0.02-0.08c0-0.06,0.1-0.12,0.1-0.18c0-0.06,0.02-0.16,0.02-0.16
		s0-0.06,0-0.12c0-0.06,0.02-0.16,0.02-0.16l0.08-0.14l0.08-0.14l0.02-0.08l0.1-0.16l0.04-0.08l0.02-0.08l0.04-0.08l0.12-0.12
		l0.04-0.12l0.02-0.1l0.14-0.06l0.06-0.02c0,0,0.06,0,0.12,0c0.06,0,0.06,0,0.06,0s0.08,0,0.15,0c0.08,0,0.08,0,0.08,0l0.08-0.02
		l0.12-0.02c0.08,0.1,0.21,0,0.21,0v-0.2v-0.1c0,0-0.01-0.02,0.06-0.02c0.07,0,0.14,0,0.14,0l0.1,0.02h0.1h0.1h0.11l0.07-0.08
		l0.06-0.04V3.07l0.04-0.12l0.08-0.1c0,0,0-0.06,0.06-0.06c0.06,0-0.04,0,0.06,0c0.1,0,0.17,0,0.17,0c0.08,0.06,0.29,0.06,0.35,0.06
		c0.06,0,0.06,0,0.06,0l0.12-0.12c0,0,0.04-0.02,0.1-0.02c0.06,0,0.15,0,0.15,0h0.12l0.12,0.04c0,0,0.08,0.02,0.14,0.02
		c0.06,0,0.1-0.06,0.1-0.06l0.08-0.06l0.06-0.02l0.08-0.04c0,0,0,0,0.08,0c0.08,0,0.17,0,0.17,0L16.7,2.64L16.7,2.64z"/>
	<path class="st2" d="M22.04,0.63l0.04,0.16h0.14l0.1-0.02l0.06-0.02l0.08-0.08l0.1-0.06l0.08-0.1l0.08-0.04l0.1-0.08
		c0,0,0.06-0.04,0.12-0.06c0.06-0.02,0.21-0.04,0.27-0.04c0.06,0,0.14,0,0.14,0l0.15,0.02l0.08,0.02l0.06,0.04l0.14,0.02l0.15,0.02
		c0,0,0.04,0.02,0.1,0.02c0.06,0,0.06-0.02,0.12,0.02c0.06,0.04,0.08,0.02,0.12,0.08c0.04,0.06,0.1,0.08,0.1,0.08l0.04,0.1
		l0.08,0.16l0.02,0.14l0.08,0.12c0,0,0.06,0,0.06,0.06c0,0.06,0.02-0.02,0.02,0.16c0,0.18,0,0.31,0,0.31l-0.02,0.06
		c0,0-0.02,0.04-0.08,0.08c-0.06,0.04-0.06,0.12-0.06,0.12L24.44,2c0,0-0.02,0.06-0.02,0.12c0,0.06,0-0.06,0,0.16
		c0,0.23,0,0.35,0,0.35L24.4,2.7c0,0,0,0.06,0,0.12c0,0.06,0,0.16,0,0.16l0.06,0.14l0.06,0.1l0.04,0.08v0.1c0,0,0.02,0,0,0.06
		c-0.02,0.06,0,0.04-0.08,0.12c-0.08,0.08-0.1,0.14-0.1,0.14s-0.04,0-0.02,0.08c0.02,0.08,0.02,0.06,0.02,0.16
		c0,0.1,0.02,0.12,0.02,0.18c0,0.06,0,0.12,0,0.12l-0.02,0.08c0,0-0.02,0-0.02,0.06c0,0.06,0,0.27,0,0.33c0,0.06,0,0.06,0,0.06v0.12
		v0.08l-0.04,0.12l-0.04,0.08v0.08L24.26,5.4v0.12l-0.1,0.1l-0.04,0.1c0,0-0.02,0.1-0.02,0.16c0,0.06,0,0.06-0.02,0.12
		c-0.02,0.06-0.02,0.1-0.08,0.16c-0.06,0.06-0.06,0.04-0.12,0.1c-0.06,0.06-0.1,0.08-0.1,0.14c0,0.06-0.04-0.02-0.04,0.2
		s-0.02,0.33-0.02,0.33s-0.17,0-0.23,0.1c-0.06,0.1-0.04,0.16-0.06,0.23c-0.02,0.06-0.04,0.24-0.04,0.31s0,0.2,0,0.2
		s0-0.1-0.04,0.14c-0.04,0.25-0.06,0.33-0.06,0.33s-0.02-0.2-0.02,0.16c0,0.37,0,0.35,0,0.43c0,0.08,0,0.19,0,0.19l0.08,0.04
		l0.1,0.08c0,0,0.02,0.02,0.08,0.02c0.06,0,0.06,0,0.06,0h0.1h0.1l0.06,0.02h0.15l-0.02,0.1c0,0-0.08,0.12-0.14,0.14
		C23.8,9.47,23.8,9.47,23.8,9.47s-0.04,0-0.1,0.04c-0.06,0.04-0.08,0.1-0.08,0.1h-0.06h-0.08l-0.08,0.04c0,0-0.02,0-0.08,0
		c-0.06,0-0.06,0-0.06,0l-0.06,0.06c0,0,0.06,0.02-0.06,0.02c-0.12,0-0.12,0-0.12,0h-0.08h-0.35l-0.08-0.02l-0.06-0.02h-0.06
		l-0.1,0.02l-0.06,0.02h-0.06h-0.1h-0.06c0,0-0.35,0.06-0.41,0.06c-0.06,0-0.06,0-0.06,0l0,0h-0.46L21,9.78l-0.06-0.06l-0.12-0.04
		l-0.1-0.04l-0.08-0.06h-0.06l-0.08-0.06l-0.04-0.06l-0.12-0.12l-0.06-0.1l-0.17-0.43L20.1,8.67V8.49V8.34v-0.1l-0.12-0.18l0.1-0.18
		l0.02-0.06v-0.1L20.09,7.4l-0.08-0.02l-0.04-0.12l-0.02-0.12l0.02-0.12l0.02-0.39V6.5l0.02-0.16l0.02-0.12l-0.02-0.08V6.01
		c0,0-0.04-0.12-0.04-0.18c0-0.06,0-0.06,0-0.06l-0.02-0.06l0.02-0.12V5.46l0.04-0.1l0.04-0.08l0.04-0.06l0.1-0.2V4.85l-0.06-0.08
		l-0.02-0.1l-0.02-0.08l-0.02-0.25V4.25c0,0,0.08-0.08,0.08-0.14c0-0.06,0.02-0.12,0.02-0.12V3.87l0.08-0.04l0.02-0.08
		c0,0-0.02-0.1-0.02-0.16c0-0.06,0.04-0.14,0.04-0.14l0.02-0.06l0.08-0.08l0.04-0.1l-0.06-0.1l-0.08-0.08c0,0,0-0.06,0-0.12
		c0-0.06,0.02-0.1,0.02-0.16c0-0.06,0.12-0.12,0.12-0.12s0.04,0,0.04-0.1c0-0.1,0-0.1,0-0.1V2.21V2.13L20.51,2l0.06-0.18l0.08-0.21
		l0.02-0.12l0.06-0.33l0.06-0.12l0.04-0.08l0.06-0.1l0.04-0.12l0.06-0.16l0.04-0.08l0.06-0.16l0.12-0.08l0.19-0.04l0.14-0.02
		l0.19,0.02l0.13,0.02l0.31,0.25l-0.04,0.08L22.04,0.63L22.04,0.63z"/>
	<path class="st3" d="M33.16,2.66l0.04,0.02c0,0,0.08,0.08,0.14,0.1c0.06,0.02,0.06,0.02,0.06,0.02l0.04,0.06
		c0,0,0.04,0.06,0.08,0.14c0.04,0.08,0.02,0.12,0.08,0.16c0.06,0.04,0.12,0.1,0.12,0.1l0.06,0.14c0,0,0.02,0.06,0.02,0.12
		c0,0.06,0-0.04,0,0.06c0,0.1,0,0.16,0,0.16s0.04,0.04,0.04,0.12c0,0.08,0,0.06,0,0.16c0,0.1,0,0.12,0,0.18c0,0.06,0,0.14,0,0.14
		L33.8,4.36c0,0,0-0.02-0.02,0.1c-0.02,0.12,0,0.04-0.04,0.18c-0.04,0.14-0.04,0.2-0.04,0.2c-0.02,0.1-0.02,0.1-0.02,0.18
		c0,0.08,0-0.02,0,0.08c0,0.1,0,0.16,0,0.16l0.02,0.08V5.4l-0.02,0.1l-0.02,0.06c0,0,0,0.04,0,0.1c0,0.06,0-0.06,0,0.06
		c0,0.12-0.02,0.16,0,0.22c0.02,0.06,0.02,0.06,0.02,0.06l-0.06,0.14l-0.04,0.06c0,0,0.02-0.14-0.02,0.06
		c-0.04,0.2-0.08,0.22-0.08,0.22s-0.04,0.12-0.04,0.18c0,0.06-0.02,0.12,0,0.17c0.02,0.06,0.02,0.08,0.02,0.14c0,0.06,0,0.06,0,0.06
		s-0.06-0.02-0.06,0.04c0,0.06,0.04,0.1-0.02,0.14c-0.06,0.04-0.06,0.04-0.06,0.04s0.1-0.14-0.02,0.08
		C33.2,7.52,33.2,7.52,33.2,7.52s0,0.04,0,0.12c0,0.08,0,0.18,0,0.18l-0.04,0.1c0,0-0.04-0.04-0.08,0.04
		c-0.04,0.08-0.1,0.16-0.1,0.16l-0.04,0.08c0,0-0.06,0-0.1,0.06C32.81,8.3,32.81,8.3,32.81,8.3s-0.02,0.04-0.02,0.1
		c0,0.06-0.02,0.29-0.02,0.35c0,0.06,0,0.06,0,0.06s-0.1,0.1-0.15,0.14c-0.06,0.04-0.08,0.08-0.08,0.14c0,0.06-0.08,0.06-0.1,0.18
		c-0.02,0.12-0.04,0.2-0.04,0.2l-0.06,0.16c0,0-0.15,0.02-0.17,0.08c-0.02,0.06-0.06,0.2-0.06,0.2s-0.08,0.02-0.08,0.14
		c0,0.12-0.04,0.2-0.04,0.2s-0.04,0.02-0.04,0.08c0,0.06,0,0.06,0,0.06l-0.08,0.14l-0.08,0.04c0,0-0.06,0.04-0.06,0.1
		c0,0.06-0.06,0.08-0.08,0.14c-0.02,0.06-0.08,0.12-0.08,0.12s-0.02,0.06-0.08,0.12c-0.06,0.06-0.1,0.08-0.1,0.14
		c0,0.06-0.06,0.1-0.06,0.16c0,0.06-0.06,0.1-0.06,0.1l-0.08,0.08c0,0-0.06,0.08-0.12,0.14c-0.06,0.06-0.12,0.12-0.17,0.12
		c-0.06,0-0.1-0.04-0.1,0.02c0,0.06-0.06,0.1-0.06,0.1s-0.02,0.06-0.08,0.12c-0.06,0.06-0.06,0-0.12,0.06
		c-0.06,0.06-0.1,0.12-0.1,0.12s-0.04-0.02-0.1,0c-0.06,0.02-0.25,0.12-0.25,0.12s0-0.06-0.06,0c-0.06,0.06-0.37,0.06-0.43,0.1
		c-0.06,0.04-0.12,0.06-0.12,0.06l-0.31,0.1l-0.04,0.1c0,0-0.1-0.1-0.19,0.06c-0.1,0.16-0.1,0.16-0.1,0.16s-0.02,0.06-0.02,0.12
		c0,0.06-0.04,0.45-0.04,0.45v0.08c0,0-0.02-0.02-0.06,0.06c-0.04,0.08-0.08,0.14-0.08,0.14s-0.06-0.2-0.06,0.06
		c0,0.25-0.1,0.1-0.02,0.31c0.08,0.22,0.08,0.22,0.08,0.22l-0.06,0.04c0,0-0.1-0.06-0.17-0.02c-0.08,0.04-0.1,0.12-0.1,0.12
		s-0.02,0-0.1,0.04c-0.08,0.04-0.08,0.04-0.08,0.04s-0.25-0.18-0.31-0.16c-0.06,0.02-0.06-0.24-0.06-0.24s-0.06-0.04,0-0.18
		c0.06-0.14,0.04-0.24,0.04-0.24V13.3l-0.02-0.08c0,0,0-0.16-0.02-0.2c-0.02-0.04-0.02-0.16-0.02-0.16v-0.08
		c0,0,0.06-0.08-0.02-0.12c-0.08-0.04-0.1-0.1-0.1-0.1l-0.02-0.23l-0.02-0.06l0.02-0.14c0,0,0.08,0.06,0.12-0.1
		c0.04-0.16-0.02-0.12-0.02-0.22c0-0.1,0.02-0.31,0.02-0.31v-0.1l-0.06-0.06l-0.04-0.14l-0.1-0.37l0.1-0.24v-0.08l0.02-0.1
		l0.04-0.14c0,0,0.02-0.02,0.02-0.1c0-0.08,0-0.2,0.02-0.29c0.02-0.1,0-0.2,0-0.2s-0.08-0.08-0.12-0.14
		c-0.04-0.06-0.04-0.06-0.04-0.06s0,0.1-0.04-0.08c-0.04-0.18-0.04-0.18-0.04-0.18s-0.02,0-0.02-0.06c0-0.06,0-0.16,0-0.16
		s0.06-0.2,0.06-0.25c0-0.06,0.02-0.18,0.02-0.18l0.02-0.08l0.04-0.04l0.08-0.04l0.08-0.08L28,8.14h0.06c0,0,0.15-0.2,0.21-0.27
		c0.06-0.08,0.06-0.14,0.06-0.14l-0.02-0.06V7.61c0,0,0.02-0.27,0.08-0.29c0.06-0.02,0.12-0.04,0.12-0.04
		c0.1-0.12,0.15-0.16,0.15-0.16V7.07c0,0,0.04-0.04,0.08-0.1c0.04-0.06,0.04-0.08,0.06-0.14c0.02-0.06,0.12-0.16,0.12-0.24
		c0-0.08-0.1-0.1,0-0.08c0.1,0.02,0.12-0.08,0.12-0.08l0.1-0.06l0.02-0.06l0.06-0.04l0.12-0.06c0,0,0.04,0,0.04-0.06
		c0-0.06,0-0.02,0.02-0.12c0.02-0.1,0.02-0.1,0.02-0.1l0.04-0.08c0,0,0.04-0.02,0.1-0.04c0.06-0.02,0.06-0.02,0.06-0.02l0.08-0.08
		l0.06-0.08V5.6V5.54c0,0,0-0.04,0-0.1c0-0.06,0-0.06,0-0.12c0-0.06,0-0.06,0-0.06s-0.04-0.06,0.02-0.08
		c0.06-0.02,0.02-0.12,0.08-0.2c0.06-0.08,0.06-0.08,0.06-0.08l0.02-0.06c0,0,0.02-0.1,0.08-0.18c0.06-0.08,0.06-0.08,0.06-0.08
		l0.1-0.08c0,0,0.04-0.02,0.06-0.1c0.02-0.08,0.02-0.08,0.02-0.08l0.1-0.12l0.06-0.1l0.06-0.06l0.06-0.04l0.04-0.08l0.02-0.06
		c0,0,0.04-0.04,0.1-0.1c0.06-0.06,0.12-0.06,0.12-0.14c0-0.08,0-0.08,0-0.08s0-0.08,0.06-0.1c0.06-0.02,0.06-0.02,0.06-0.02
		l0.04-0.08l0.12-0.14l0.04-0.08l0.1-0.06l0.12-0.06h0.06l0.16-0.04l0.06-0.08l0.04-0.06l0.02-0.06c0,0,0,0,0.06-0.04
		c0.06-0.04,0.12-0.04,0.12-0.04s-0.02-0.04,0.1-0.12c0.12-0.08,0.29-0.12,0.29-0.12h0.13l0.06-0.02C32.43,2.5,32.5,2.5,32.5,2.5
		l0.12-0.02l0.17,0.02l0.16,0.04l0.1,0.04L33.16,2.66L33.16,2.66z"/>
	<path class="st3" d="M36.7,17.77h0.11c0,0,0.06,0.04,0.12,0.04c0.06,0,0.12,0,0.12,0l0.1,0.08l0.04,0.08L37.3,18
		c0,0-0.04-0.02,0.04,0.04c0.08,0.06,0.14,0.08,0.14,0.08s-0.02,0.04,0.06,0.12c0.08,0.08,0.15,0.18,0.15,0.18s0.02,0.04,0.02,0.1
		c0,0.06-0.02-0.06-0.02,0.14c0,0.2,0,0.27,0,0.27l-0.06,0.06l-0.04,0.08c-0.02,0.1-0.02,0.18-0.02,0.18s0.04,0.08,0.04,0.14
		c0,0.06,0,0.12,0,0.12v0.12c0,0-0.06,0.02-0.1,0.1c-0.04,0.08-0.06,0.18-0.06,0.18s-0.06-0.14-0.02,0.08
		c0.04,0.21,0.04,0.08,0.04,0.27c0,0.2-0.12,0.25-0.17,0.31c-0.06,0.06-0.08,0.12-0.08,0.12s-0.02-0.04,0,0.04
		c0.02,0.08,0,0.08,0.02,0.16c0.02,0.08,0.02-0.08,0.02,0.14c0,0.21,0,0.04,0,0.27c0,0.23,0,0.23,0,0.29c0,0.06-0.04,0.1-0.04,0.1
		s-0.06-0.06-0.06,0.02c0,0.08,0,0.08,0,0.14c0,0.06-0.06,0.1-0.06,0.16c0,0.06,0,0.06,0,0.06s0,0.06-0.04,0.12
		c-0.04,0.06-0.04,0.06-0.1,0.1c-0.06,0.04-0.1,0.12-0.1,0.12s-0.04,0.02-0.04,0.1c0,0.08-0.02,0.04-0.02,0.12c0,0.08,0,0.12,0,0.18
		c0,0.06,0,0.02,0,0.14c0,0.12-0.02,0.14-0.02,0.22c0,0.08,0,0.14,0,0.14s-0.02-0.41-0.04,0.04c-0.02,0.45-0.06,0.49-0.06,0.49
		l-0.04,0.06l-0.02,0.08c0,0,0.04,0.04-0.06,0.14c-0.1,0.1-0.1,0.12-0.12,0.17c-0.02,0.06-0.02,0.12-0.02,0.12l-0.02,0.08
		l-0.02,0.12c0,0-0.04,0.08-0.04,0.14c0,0.06,0,0.14,0,0.14s-0.04,0-0.04,0.06c0,0.06,0,0.06,0,0.06l-0.06,0.12c0,0,0,0,0,0.08
		c0,0.08,0,0.16,0,0.16s0.06,0,0.04,0.06c-0.02,0.06-0.06,0.02-0.06,0.12c0,0.1,0,0.06-0.02,0.18c-0.02,0.12-0.06,0.04-0.08,0.25
		c-0.02,0.22-0.02,0.28-0.02,0.28s0.04,0.02-0.04,0.06c-0.08,0.04-0.08,0.1-0.08,0.1l-0.02,0.08l0.06,0.18h0.06
		c0,0,0.02,0.02,0.04,0.08c0.02,0.06-0.04-0.16,0.02,0.12c0.06,0.27,0,0.29,0,0.29H36.1c0,0-0.04,0-0.04,0.08c0,0.08,0,0.14,0,0.14
		s0,0.02,0,0.1c0,0.08-0.04,0-0.04,0.12c0,0.12,0,0,0,0.12c0,0.12-0.04,0.16-0.04,0.23c0,0.08,0.06,0.49,0.06,0.49s0.02,0,0.02,0.06
		c0,0.06-0.08,0.41-0.08,0.41v0.08c0,0-0.04,0.04-0.04,0.1c0,0.06-0.02,0.1-0.02,0.16c0,0.06-0.06,0.06-0.06,0.14
		c0,0.08-0.02,0.12-0.02,0.12s0,0,0,0.12c0,0.12,0,0.12,0,0.12l-0.02,0.14v0.04c0.02,0.1,0.02,0.2,0.02,0.2s0,0.04,0,0.12
		c0,0.08-0.08,0.2-0.08,0.2l-0.02,0.04l0.02,0.12c0,0,0,0.06,0.02,0.12c0.02,0.06,0.02,0.12,0.02,0.2c0,0.08,0,0.14,0,0.14v0.1
		c0,0-0.04-0.1-0.02,0.14c0.02,0.23,0.02,0.18,0.02,0.37c0,0.2,0.02,0.27,0.02,0.27s0.02,0.18,0.02,0.26c0,0.08-0.02-0.02,0,0.08
		c0.02,0.1,0,0.27,0,0.27l0.02,0.12l0.04,0.08l0.08,0.08c0,0-0.02,0-0.02,0.06c0,0.06-0.02,0.08,0,0.14c0.02,0.06,0,0.1,0.02,0.16
		c0.02,0.06,0,0.06,0.02,0.12c0.02,0.06,0.02,0.06,0.02,0.16c0,0.1,0.02-0.18,0,0.16c-0.02,0.33-0.02,0.41-0.02,0.41l0.08,0.02
		l0.04,0.06c0.02,0.1,0,0.1,0,0.18s0.02-0.06,0,0.08c-0.02,0.14-0.04,0.14-0.02,0.2c0.02,0.06-0.02,0.04,0.02,0.12
		c0.04,0.08-0.04,0,0.04,0.08c0.08,0.08,0,0,0.08,0.08c0.08,0.08,0.08-0.06,0.1,0.14c0.02,0.2,0.02,0.3,0.02,0.3s0,0.06,0,0.12
		c0,0.06,0,0.2,0.04,0.25c0.04,0.06,0.08,0.12,0.08,0.12s0.02,0.06,0.06,0.12c0.04,0.06,0.06,0.17,0.06,0.17l0.02,0.06l0.04,0.06
		l0.06,0.06c0,0,0,0.04,0.02,0.1c0.02,0.06,0.1,0.35,0.1,0.35c0.1,0.04,0.12,0.04,0.16,0.1c0.04,0.06,0.1,0.25,0.1,0.25l0.08,0.14
		l0.06,0.04c0.17,0.22,0.17,0.22,0.17,0.22l0.04,0.04l0.13,0.06l0.06,0.04l0.06,0.04c0.08,0.1,0,0.06,0.08,0.1
		c0.08,0.04,0.15,0.04,0.15,0.04s0.02-0.03,0.08,0.02c0.06,0.05,0.02,0.05,0.12,0.05c0.1,0,0.19,0.11,0.19,0.11h0.08l0.08,0.04
		c0,0-0.12-0.08,0.06,0.02c0.17,0.1,0.11,0,0.17,0.02c0.06,0.02,0.14-0.06,0.21,0c0.08,0.06,0.17,0.06,0.23,0.06
		c0.06,0,0.1,0.02,0.1,0.02l0.25,0.04l0.02-0.08l0.02,0.18l-0.04,0.08c0,0,0.17-0.04-0.02,0.1c-0.19,0.14-0.1,0.08-0.1,0.08
		l-0.06,0.12l-0.08,0.04l-0.1,0.02L39,38.63l-0.06,0.02l-0.14,0.1l-0.12,0.02h-0.08h-0.06l-0.04,0.12l0.04,0.06L38.62,39h-0.06
		h-0.08l-0.14-0.02c0,0-0.04-0.04-0.11-0.08c-0.08-0.04-0.16-0.06-0.16-0.06l-0.15,0.02l-0.12-0.08l-0.04-0.06l-0.33-0.18
		l-0.29-0.06l-0.06-0.02l-0.1,0.02l-0.08-0.02l-0.1-0.02l-0.11-0.12l-0.19-0.18l0.02-0.12l-0.06-0.08c0,0-0.06-0.02-0.12-0.04
		c-0.06-0.02-0.1-0.04-0.1-0.04l-0.37,0.02l-0.06-0.29v-0.12l-0.02-0.08l-0.13-0.04c0,0-0.1-0.12-0.1-0.18c0-0.06-0.1-0.1-0.1-0.1
		l-0.08-0.04l-0.06-0.02l-0.12-0.12l-0.02-0.08v-0.08c0,0-0.06-0.19-0.06-0.25c0-0.06-0.08-0.18-0.08-0.18l-0.02-0.18V36l-0.21,0.12
		l-0.12-0.06l-0.06-0.02h-0.06l-0.04-0.02l-0.06-0.1l-0.04-0.08l-0.06-0.12l-0.02-0.06v-0.06c0,0-0.02-0.06-0.02-0.12
		c0-0.06-0.02,0.1-0.04-0.14c-0.02-0.24-0.02-0.28-0.02-0.28l-0.08-0.14c0,0-0.02-0.08-0.02-0.14c0-0.06-0.02-0.1-0.02-0.1
		l0.17-0.02l0.06-0.02v-0.12c0,0,0,0,0-0.08c0-0.08,0-0.29-0.02-0.35c-0.02-0.06-0.02-0.06-0.02-0.06l0.06-0.26l-0.06,0.04h-0.15
		h-0.04l-0.12,0.02l-0.08-0.04l0.08-0.16l0.1-0.02l0.02-0.14l-0.1-0.45l-0.14-0.04l-0.02-0.12l-0.06-0.14v-0.08c0,0,0-0.02,0-0.08
		c0-0.06,0-0.06,0-0.06s0,0-0.02-0.06c-0.02-0.06-0.02-0.06-0.02-0.06l-0.12-0.04c0,0-0.06,0-0.08,0.06
		c-0.02,0.06-0.06,0.14-0.06,0.14l-0.02,0.04c0,0-0.04,0-0.06,0.06c-0.02,0.06,0-0.02-0.02,0.06c-0.02,0.08,0.1,0-0.02,0.08
		c-0.12,0.08-0.06-0.04-0.12,0.08c-0.06,0.12-0.06,0.06-0.06,0.12c0,0.06,0.25-0.08,0,0.06c-0.25,0.14-0.25,0.1-0.25,0.14
		c0,0.04,0.19,0,0.19,0l-0.08,0.12l-0.02,0.08c-0.06,0.06-0.06,0.06-0.06,0.06s-0.02-0.04-0.02,0.04c0,0.08,0-0.06,0,0.08
		c0,0.14,0,0.06,0,0.14c0,0.08,0,0.08,0,0.08s0.04-0.06,0,0c-0.04,0.06-0.04-0.1-0.04,0.02c0,0.12,0,0.12,0,0.12l0,0V34v0.04
		c0,0-0.29,0.02-0.35,0.06c-0.06,0.04-0.06,0.04-0.06,0.04s0.25,0.08,0,0c-0.25-0.08-0.29-0.08-0.29-0.08s0,0.02-0.06-0.02
		C32.23,34,32.31,34.08,32.23,34c-0.08-0.08-0.08-0.08-0.08-0.08l-0.02-0.1l-0.1-0.04l-0.08-0.02l-0.04-0.08c0,0-0.02-0.24-0.02-0.3
		c0-0.06-0.02-0.12-0.02-0.12s0-0.2,0.02-0.29c0.02-0.1,0.02-0.16,0.02-0.16s-0.06,0.02,0.02-0.08c0.08-0.1-0.02-0.04,0.08-0.1
		c0.1-0.06,0.19-0.33,0.19-0.33s0.02-0.02,0.04-0.08c0.02-0.06,0.02-0.06,0.02-0.06v-0.14c0,0,0.04,0.02,0.02-0.06
		c-0.02-0.08-0.02-0.16-0.02-0.16l-0.02-0.16l0.04-0.08c0,0-0.04-0.1,0.02-0.12c0.06-0.02,0.06-0.02,0.06-0.02l0,0l0.06-0.14
		c0,0,0.02-0.08,0-0.14c-0.02-0.06-0.02,0.06-0.02-0.06c0-0.12-0.06,0,0-0.12c0.06-0.12,0.06-0.12,0.06-0.12v-0.1
		c0,0,0.02,0.02,0-0.1c-0.02-0.12,0.06-0.04-0.02-0.12c-0.08-0.08,0.12,0.16,0,0c-0.12-0.16-0.21-0.04-0.12-0.16
		c0.1-0.12,0.02-0.1,0.1-0.12c0.08-0.02,0.06-0.04,0.13-0.06c0.08-0.02,0,0.04,0.08-0.02c0.08-0.06,0.08-0.06,0.08-0.06
		s-0.08,0.24,0,0c0.08-0.24,0.08-0.27,0.08-0.27v-0.22l-0.1-0.08l-0.02-0.29v-0.06l0.1-0.22l0.04-0.12l0.04-0.08
		c0,0,0.06-0.2,0.12-0.27c0.06-0.08,0.06-0.08,0.06-0.08s-0.08,0.08,0,0c0.08-0.08,0.12-0.18,0.12-0.18l0.08-0.1l0.04-0.08v-0.1
		L33.32,28l0.02-0.27l-0.08-0.04h-0.04l-0.04-0.08l-0.02-0.08l-0.02-0.12l0.02-0.16l0.02-0.08c0,0,0.02-0.08,0.02-0.14
		c0-0.06,0.04-0.2,0.04-0.2l0.08-0.16c0,0,0.02-0.06,0.02-0.12s0.02-0.12,0.02-0.12s0.08-0.06,0.1-0.12
		c0.02-0.06,0.02-0.06,0.02-0.06V26.2l0.06-0.12l0.04-0.12v-0.08l-0.04-0.23v-0.12l0.08-0.12l0.02-0.1c0,0,0.04-0.2,0.06-0.26
		c0.02-0.06,0,0.06,0.02-0.06c0.02-0.12,0.1-0.2,0.1-0.2c0.02-0.14-0.04-0.16-0.04-0.24c0-0.08,0,0.26,0-0.08
		c0-0.33-0.08-0.14,0-0.3c0.08-0.16-0.04-0.08,0.02-0.12c0.06-0.04,0.21-0.04,0.21-0.1c0-0.06,0.02-0.08,0.02-0.14
		c0-0.06,0.04-0.37,0.06-0.43c0.02-0.06,0.06-0.08,0.08-0.14c0.02-0.06,0-0.04,0.04-0.1c0.04-0.06,0,0.04,0.04-0.06
		c0.04-0.1,0.02-0.02,0.04-0.1c0.02-0.08,0.02-0.08,0.02-0.08s-0.06,0.06-0.06-0.1c0-0.16,0-0.06,0-0.16c0-0.1-0.14,0.33,0-0.1
		c0.14-0.43,0.04-0.31,0.12-0.37c0.08-0.06,0.08-0.06,0.08-0.06v-0.04c0,0,0,0.04,0-0.06c0-0.1-0.04-0.16-0.04-0.16l-0.02-0.1
		c0,0-0.02-0.02,0-0.08c0.02-0.06,0.02-0.06,0.02-0.06l0.04-0.1c0,0,0.02,0.02,0.1-0.06c0.08-0.08,0.08-0.08,0.08-0.08l0.08-0.18
		v-0.08v-0.33l0.08-0.16c0,0,0.04-0.04,0.06-0.1c0.02-0.06,0.06-0.16,0.06-0.16l-0.02-0.1l0.02-0.16c0,0,0.14-0.14,0.14-0.19
		c0-0.06,0.02-0.12,0.02-0.12s0-0.14,0.02-0.23c0.02-0.1,0.02-0.14,0.02-0.14l0.02-0.1l0.19-0.16v-0.2l-0.02-0.23l0.02-0.08
		l0.12-0.29l0.08-0.12c0,0,0.06,0,0.08-0.06c0.02-0.06-0.06-0.02,0.02-0.06c0.08-0.04,0.21-0.16,0.21-0.16
		c0.12-0.1,0.17-0.1,0.17-0.1l0.12-0.16l0.12-0.06l0.15-0.04l0.15,0.02l0.08,0.02L36.7,17.77L36.7,17.77z"/>
	<path class="st1" d="M14.78,22.79l0.19,0.11v0.11l0.11,0.15v0.15l0.04,0.49l0.15,0.15h0.19v0.11l-0.04,0.23
		c0,0-0.07,0.04-0.07,0.15c0,0.11-0.07,0.3-0.07,0.3v0.19c0,0,0,0.04,0.11,0.15c0.11,0.11,0.19,0.3,0.19,0.3l0.04,0.11
		c0,0-0.11,0.11-0.15,0.23C15.41,25.85,15.41,26,15.41,26l-0.04,0.15l0.11,0.23c0.19,0.11,0.3,0.15,0.3,0.26c0,0.11,0,0.11,0,0.11
		l0,0l0.04,0.15c0,0-0.04,0.15-0.04,0.26c0,0.11,0,0.3,0,0.3v0.23l-0.07,0.15v0.23l-0.04,0.15l0.11,0.3l0.07,0.3l0.04,0.19
		c0,0.3,0,0.45,0,0.45v0.19c0,0-0.04,0.04-0.04,0.15c0,0.11,0.04,0.26,0.04,0.26s0,0.04,0.11,0.08c0.11,0.04,0.11,0.04,0.11,0.04
		l-0.04,0.19l-0.07,0.15c-0.11,0.19-0.22,0.26-0.22,0.26l0.11,0.26l0.04,0.19l0.04,0.15c0.19,0.26,0.3,0.42,0.3,0.42v0.15v0.15v0.19
		l0.45,0.57l-0.19,0.11l-0.11,0.11l-0.04-0.38h-0.11c-0.04,0.26-0.04,0.38-0.04,0.38c0,0.11,0.07-0.07,0,0.11
		c-0.08,0.19-0.08,0.19-0.08,0.19l0.04,0.11c0,0,0,0,0,0.11c0,0.11,0,0.11,0,0.11s-0.3-0.3,0.07,0.11c0.37,0.41,0.37,0.41,0.37,0.41
		l0.19,0.34c0,0,0,0,0.04,0.11c0.04,0.11,0.04,0.11,0.04,0.11l0,0l-0.07,0.23l-0.04,0.15l-0.26-0.19l-0.11-0.04
		c0,0-0.56-0.15-0.71-0.08c-0.15,0.08-0.15,0.08-0.15,0.08l-0.11-0.26l-0.22-0.19l-0.11-0.11l-0.15-0.08l-0.11-0.04
		c0,0-0.08-0.15-0.22-0.3c-0.15-0.15-0.15-0.15-0.15-0.15l-0.13-0.26v-0.19v-0.23c0,0,0-0.41,0-0.53c0-0.11,0,0.11,0,0.11
		l-0.27,0.04l-0.19-0.23v-0.11c0,0-0.18-0.04-0.18-0.15c0-0.11-0.04-0.23-0.04-0.23v-0.19v-0.23c0,0-0.07,0-0.11-0.11
		c-0.04-0.11-0.04-0.11-0.04-0.11l-0.15-0.15l-0.07-0.11l-0.11-0.26v-0.15c0,0,0-0.11,0-0.23c0-0.11,0-0.11,0-0.11l0,0l-0.04-0.19
		l-0.11-0.08l-0.07,0.19l-0.11,0.53c0,0-0.08,0.19-0.15,0.3c-0.07,0.11-0.07,0.11-0.07,0.11l-0.22,0.19l-0.04,0.3v0.11l-0.11,0.15
		c-0.04,0.15-0.04,0.3-0.04,0.3l-0.04,0.15c0,0-0.04-0.04-0.07,0.11c-0.04,0.15-0.15,0.26-0.15,0.38c0,0.11,0,0.11,0,0.11
		l-0.04,0.26l-0.07,0.11c0,0-0.15-0.04-0.15,0.08c0,0.11,0,0.3,0,0.3l-0.04,0.15l-0.04,0.11c0,0-0.11-0.04-0.15,0.08
		c-0.04,0.11-0.04,0.11-0.04,0.11l-0.07,0.3l-0.04,0.19c0,0,0.07,0.11-0.04,0.19c-0.11,0.07-0.26,0.23-0.26,0.23v0.34
		c0,0,0,0-0.07,0.19c-0.07,0.19-0.07,0.19-0.07,0.19s0.11,0.04,0.11,0.15c0,0.11,0.22-0.26,0,0.11c-0.22,0.38-0.22,0.38-0.22,0.38
		s-0.19-0.07-0.19,0.04c0,0.11,0,0.26,0,0.26l-0.26-0.22l0.19-0.38c0,0,0.11,0.08,0.04-0.15c-0.07-0.23-0.11-0.34-0.11-0.34
		s-0.19-0.11-0.22-0.23c-0.04-0.11-0.04-0.11-0.04-0.11l-0.11-0.08l-0.22-0.19l-0.19-0.07l-0.07-0.34c0,0,0,0,0.04-0.11
		c0.04-0.11,0.04-0.56,0.04-0.79c0-0.23,0-0.23,0-0.23s0.07-0.45,0.26-0.6c0.19-0.15,0.34-0.23,0.34-0.23l0.11-0.19v-0.19v-0.11
		V32.1l0.08-0.23c0,0-0.08-0.64,0-0.75c0.07-0.11,0.18-0.15,0.18-0.15s0.04,0.15,0.19-0.11c0.15-0.26,0.04-0.04,0.15-0.26
		c0.11-0.23,0.11-0.23,0.11-0.23l0.15-0.08l0.04-0.19l-0.04-0.34V29.5l0.04-0.19l-0.15-0.15c0,0,0.07-0.23,0.07-0.41
		c0-0.19,0.04-0.34,0.04-0.34s0,0.15,0.08-0.15c0.07-0.3,0.11-0.45,0.11-0.45v-0.11l0.11-0.07c0,0-0.07,0.19,0.07-0.15
		c0.15-0.34,0.15-0.34,0.15-0.34l0,0l0.04-0.23v-0.11c0,0,0.04-0.04,0.04-0.15c0-0.11,0.04-0.11,0.04-0.23c0-0.11,0-0.11,0-0.11
		s0.3-0.34,0.3-0.49c0-0.15-0.11-0.45-0.11-0.45l-0.04-0.11v-0.11c0,0,0-0.04,0.11-0.19c0.11-0.15,0.11-0.15,0.11-0.15l0.04-0.26
		V24.3l0.07-0.6l0.15-0.15l0.04-0.11l0.26-0.23l0.3-0.26l0.37-0.11l0.11-0.04c0,0,0.18-0.04,0.33-0.04c0.15,0,0.34,0,0.34,0
		L14.78,22.79L14.78,22.79z"/>
	<polyline class="st4" points="9.51,35.99 9.57,36.09 9.5,36.29 9.35,36.23 9.35,36.1 9.34,35.97 	"/>
	<path class="st2" d="M1.51,16.14c0.11,0.02,0.22,0.05,0.27,0.05c0.04,0,0.04,0,0.04,0h0.23l0.07,0.12l0.04,0.03v0.07l-0.03,0.06
		l-0.07,0.09l-0.04,0.03l-0.01,0.06l-0.01,0.04l0.09,0.09l0.04,0.09l0.04,0.07v0.06v0.07c0,0,0.03,0.04,0.07,0.07
		c0.04,0.03,0.12,0.1,0.12,0.1l0.04,0.04l0.06,0.04v0.07v0.09l0.04,0.04l0.04,0.06l0.06,0.06c0,0,0,0.03,0,0.07
		c0,0.04-0.01,0.04,0,0.09c0.02,0.04,0.02,0.1,0.02,0.1l0.01,0.07l0.03,0.07l0.06,0.03l0.06-0.01l0.06-0.01l0.13,0.01
		c0,0,0.03,0,0.07,0.03c0.04,0.03,0.1,0.03,0.1,0.03l0.09,0.03l0.06,0.07l0.09,0.03l0.04,0.03l0.06,0.04L3.5,18.4l0.04,0.01
		l0.07,0.06h0.04h0.07h0.06c0,0-0.01,0,0.04,0c0.06,0,0.09,0.09,0.09,0.09l0.01,0.03l0.09,0.02l0.06,0.01h0.06l0.17,0.01l0.04,0.02
		h0.06H4.5l0.09,0.03l0.09,0.03l0.09,0.06l0.09,0.03l0.07,0.01L5,18.79l0.03,0.01l0.1,0.02c0,0,0.06,0,0.09,0.04
		c0.03,0.04,0.09,0.06,0.09,0.06s0.04,0.03,0.1,0.03c0.06,0,0.11,0,0.11,0l0.04,0.01l0.07,0.02c0,0,0.09-0.03,0.13-0.03
		c0.04,0,0.13,0,0.13,0l0.04-0.01c0,0,0.07-0.04,0.13-0.04c0.06,0,0.29-0.03,0.35-0.03c0.06,0,0.1,0.01,0.1,0.01l0.07,0.06
		c0,0,0,0.04,0.04,0.06c0.04,0.01,0.12,0.03,0.12,0.03h0.1l0.1,0.01c0,0,0.03,0,0.1,0c0.07,0,0.09-0.03,0.14,0
		c0.06,0.03,0.17,0.04,0.17,0.04h0.2l0.06-0.09h0.04h0.04l0.04,0.06h0.1c0,0,0.07,0,0.13,0c0.06,0,0.16,0,0.16,0
		s0.07-0.03,0.11-0.03c0.04,0,0.27,0.01,0.27,0.01h0.06h0.07c0,0,0.09-0.04,0.11,0c0.03,0.04,0.03,0.04,0.03,0.04l0.04-0.01
		l0.09-0.01c0,0,0.03,0,0.11,0c0.09,0,0.16,0,0.16,0l0.15-0.07l0.07-0.04h0.09l0.03,0.09l0.09,0.03c0,0,0.27,0,0.32,0
		c0.04,0,0.09,0,0.09,0h0.06l0.12-0.06l0.13-0.04l0.09,0.07c0,0,0.06-0.02,0.1-0.02c0.04,0,0.07-0.01,0.11-0.01
		c0.04,0,0.07,0,0.12,0c0.04,0,0.12,0,0.12,0h0.06l0.04,0.03l0.1,0.03h0.06c0,0-0.04,0.03,0.07,0.01c0.12-0.01,0.1-0.06,0.14-0.06
		c0.04,0,0.04-0.04,0.09-0.04c0.04,0,0.06-0.06,0.06-0.06l0.07-0.01c0,0,0.04,0,0.09,0.04c0.04,0.04,0.07,0.03,0.1,0.07
		c0.03,0.04,0.03,0.06,0.03,0.1c0,0.04,0,0.04,0,0.04v0.04h0.13l0.06-0.03h0.1l0.06-0.04l0.11-0.04l0.03-0.06h0.11
		c0,0,0.17,0,0.22,0c0.04,0,0.09,0,0.09,0s0.16-0.02,0.2,0c0.04,0.01,0.07,0.01,0.12-0.02c0.04-0.03,0.09-0.04,0.09-0.04
		s0.03-0.03,0.07-0.03c0.04,0-0.06-0.02,0.2-0.02c0.26,0,0.16,0,0.3,0.02c0.14,0.01,0.15,0.01,0.23,0.01c0.07,0,0.15-0.03,0.19-0.03
		c0.04,0,0.07-0.13,0.17-0.15c0.1-0.01,0.03-0.01,0.1-0.01c0.07,0,0.12-0.01,0.17,0c0.06,0.01-0.03-0.01,0.14,0.01
		c0.17,0.03,0.22,0.04,0.22,0.04l0.04,0.06l0.09,0.02c0,0,0-0.02,0.04-0.02c0.04,0,0.04,0,0.1,0c0.06,0,0.09-0.01,0.14-0.01
		c0.06,0,0.09,0,0.14,0c0.06,0,0.12,0,0.12,0s0.03-0.04,0.1-0.04c0.07,0,0.1-0.02,0.17-0.02c0.07,0,0.19,0.04,0.19,0.04
		s0.07,0,0.12,0c0.04,0,0.06-0.02,0.1-0.02c0.04,0,0.12,0,0.12,0s0.16,0,0.22,0c0.06,0,0.14,0,0.14,0l0.2-0.01l0.12-0.02l0.1-0.03
		c0,0,0.2-0.03,0.29-0.04c0.09-0.02,0.1-0.02,0.14-0.02c0.04,0,0.11-0.03,0.24-0.03c0.13,0,0,0,0.19,0c0.19,0,0.32-0.04,0.38-0.04
		c0.06,0,0.11,0,0.17,0c0.06,0,0.19-0.02,0.23-0.03c0.04-0.01,0.11-0.01,0.11-0.01h0.2l0.14-0.02l0.11,0.09c0,0-0.03,0,0.06,0
		c0.09,0,0.24,0,0.24,0h0.09l0.04-0.03c0,0,0.04-0.02,0.04-0.06c0-0.04,0.06-0.1,0.06-0.1s0.04-0.03,0.09-0.03c0.04,0,0.04,0,0.12,0
		c0.07,0,0.07-0.03,0.13,0c0.06,0.03,0.2,0.03,0.2,0.03h0.17c0,0,0.07-0.03,0.11-0.03s0.07-0.03,0.12-0.03c0.04,0,0.1-0.01,0.1-0.01
		s0.12,0,0.16,0c0.04,0,0.14,0,0.14,0h0.06c0,0,0.04,0,0.09,0c0.04,0,0.13,0,0.13,0s0.27-0.01,0.32-0.01c0.04,0,0.22-0.04,0.22-0.04
		s0.27-0.04,0.32-0.07c0.04-0.03-0.09-0.03,0.1-0.03c0.19,0,0.53,0,0.59-0.01c0.06-0.01,0.09-0.03,0.13-0.03
		c0.04,0,0.19-0.03,0.23-0.03c0.04,0,0.14-0.01,0.2-0.03c0.06-0.02,0.17-0.04,0.23-0.04c0.06,0,0.09,0,0.14,0c0.06,0,0.07,0,0.16,0
		c0.09,0,0.09,0,0.14,0c0.06,0,0.22-0.03,0.3-0.03c0.09,0,0.1,0,0.16-0.01c0.06-0.02,0.01-0.02,0.1-0.02c0.09,0,0.12-0.06,0.39-0.03
		c0.27,0.03,0.27,0.01,0.32,0.03c0.04,0.02,0.06,0,0.1,0.03c0.04,0.03,0-0.03,0.09,0.03c0.09,0.06,0.26,0.1,0.32,0.09
		c0.06-0.01,0.09-0.07,0.09-0.07l0.03-0.06L26.19,18l0.06-0.06l0.07-0.06l0.07-0.04c0,0-0.09-0.03,0.1,0
		c0.19,0.03,0.23,0.03,0.23,0.03l0.09,0.01c0,0,0.1,0.01,0.2,0.01c0.1,0,0.19,0,0.19,0l0.04-0.04l0.06-0.04l0.1-0.02
		c0,0,0.06,0,0.13,0c0.07,0,0.14,0,0.14,0s0.04,0,0.09,0c0.04,0,0.1,0,0.1,0s0.09-0.01,0.13-0.01c0.04,0,0.07-0.03,0.12-0.03
		c0.04,0,0.17-0.04,0.17-0.04h0.09h0.04l0.06-0.04l0.07-0.03l0.1-0.06l0.09-0.06l0.11-0.07l0.1-0.03l0.1-0.01h0.1l0.11-0.04
		c0,0,0.04-0.01,0.1-0.03c0.06-0.01,0.13-0.04,0.17-0.04s0.13,0,0.13,0h0.14l0.1,0.02h0.13l0.06,0.03h0.07l0.03-0.04l0.07-0.01
		l0.06-0.02l0.07-0.01h0.07l0.06-0.01l0.19-0.02l0.03-0.04h0.04l0.04-0.04h0.04l0.11-0.07h0.09h0.04l0.06-0.03l0.06-0.03h0.1
		l0.09,0.03l0.03,0.09c0,0,0.01,0,0.06,0c0.04,0,0.04,0,0.04,0l0.13-0.04h0.04h0.11l0.07,0.02h0.04h0.07l0.09-0.06l0.07-0.03
		l0.07-0.04l0.06-0.03l0.04-0.01c0,0,0.11-0.03,0.16-0.04c0.04-0.01,0.14-0.06,0.14-0.06l0.06-0.04l0.07-0.06l0.07-0.06l0.07-0.03
		c0,0,0.17-0.01,0.22,0c0.04,0.01,0.1,0.01,0.14,0.03c0.04,0.01,0.06,0,0.1,0.01c0.04,0.01,0.1,0.03,0.1,0.03s0.03,0,0.07,0
		c0.04,0,0.13-0.04,0.13-0.04s0.06-0.04,0.1-0.06c0.04-0.01-0.14-0.06,0.04-0.01c0.19,0.04,0.24,0.04,0.24,0.04s0.07,0,0.11,0
		c0.04,0,0.04,0,0.04,0l0.03-0.03c0,0,0.35-0.19,0.37-0.23c0.03-0.04,0.16-0.04,0.16-0.04l0.24,0.02c0.06,0.01,0.1,0.01,0.14,0.03
		c0.04,0.02,0.07,0.02,0.07,0.02s0.06,0,0.1,0c0.04,0,0.1-0.02,0.1-0.02h0.07l0.09-0.03l0.11-0.03l0.23-0.03l0.2-0.07l0.06-0.01
		l0.1-0.03l0.09-0.01c0,0,0.01-0.01,0.06-0.01c0.04,0,0.11-0.01,0.11-0.01h0.06l0.22-0.09l0.07-0.03L37.02,16l0.1-0.04l0.06-0.01
		l0.06-0.03l0.07-0.01h0.07h0.09c0,0-0.06-0.04,0.1-0.03c0.16,0.02,0.22,0.02,0.22,0.02h0.03h0.07l0.06,0.02c0,0,0.01,0,0.07,0
		c0.06,0,0.12,0.01,0.12,0.01l0.07,0.01h0.06l0.09-0.01l0.1-0.03l0.07-0.03h0.04l0.11-0.07l0.06-0.03h0.04l0.84-0.23l0.37-0.15
		l0.13-0.04l0.13-0.01h0.19h0.04c0,0,0.06-0.02,0.12-0.03c0.06-0.01,0.06-0.04,0.1-0.04c0.04,0,0.04-0.01,0.09-0.03
		c0.04-0.01,0.04-0.01,0.04-0.01l0.14-0.01c0,0,0.02-0.03,0.09-0.01c0.07,0.01,0.14,0.03,0.14,0.03l0.14-0.04l0.25-0.01l0.16,0.01
		c0,0,0.17-0.04,0.2-0.09c0.03-0.04,0.03-0.04,0.03-0.04l0.04-0.03l0.07-0.03h0.14h0.09l0.04-0.03l0.17-0.09l0.01-0.07l0.04-0.04
		c0,0,0.09,0,0.13,0c0.04,0,0.07,0,0.11,0c0.04,0-0.04,0,0.04,0c0.09,0,0.09,0,0.14,0c0.06,0,0-0.02,0.1,0
		c0.1,0.02,0.16-0.03,0.16-0.03l0.1-0.01l0.13-0.07l0.06-0.03l0.14-0.02h0.06l0.15,0.03l0.06-0.03h0.1c0,0,0.04-0.03,0.06-0.07
		c0.02-0.04,0.09-0.07,0.09-0.07l0.1,0.06l0.04,0.01l0.1,0.01h0.07h0.06h0.07l0.03-0.04c0,0,0.12-0.01,0.16-0.01
		c0.04,0,0.1-0.03,0.1-0.03l0.01-0.06l0.04-0.04l0.07-0.01c0,0,0.01-0.02,0.09-0.03c0.07-0.01,0.13-0.01,0.13-0.01s0.11,0,0.19,0
		c0.07,0,0.13,0,0.13,0l0.01-0.07l0.03-0.09l0.04-0.04L45.79,14l0.09-0.04c0,0,0.04,0,0.09,0c0.04,0,0.11-0.01,0.11-0.01l0.13-0.04
		l0.07-0.06l0.06-0.03h0.06c0,0,0.06,0,0.1,0c0.04,0,0.06,0,0.1,0c0.04,0,0.09,0,0.09,0l0.09-0.03l0.04-0.03l0.06-0.09l0.04-0.12
		c0,0,0.03,0,0.07-0.01c0.04-0.01,0.1-0.03,0.1-0.03l0.24-0.02h0.06l0.09,0.03l0.11-0.01l0.17,0.01l0.04-0.03l0.07-0.01
		c0,0-0.04-0.03,0.01-0.04c0.06-0.01-0.03,0.02,0.06-0.01c0.09-0.03,0.01-0.04,0.09-0.03c0.07,0.02,0.01,0.02,0.07,0.02
		c0.06,0,0.01,0,0.06,0c0.04,0,0.1,0,0.1,0l0.11-0.02l0.19-0.17l0.07-0.07l0.03-0.03h0.07c0,0-0.01-0.03,0.04-0.03
		c0.06,0,0.09-0.03,0.09-0.03s-0.04,0.09,0.06-0.01c0.1-0.1,0.1-0.1,0.1-0.1l0.17,0.01l0.09,0.03l0.11,0.13h0.26l0.03,0.06
		c0,0,0-0.03,0,0.04c0,0.07,0,0.02,0,0.07c0,0.06,0-0.04,0,0.06c0,0.1,0-0.03,0,0.04c0,0.07-0.07-0.07,0,0.06
		c0.07,0.13,0,0.07,0.07,0.13c0.07,0.06,0-0.09,0.07,0.06c0.07,0.15,0.02-0.1,0.06,0.1c0.04,0.2,0.01,0.07,0.03,0.15
		c0.02,0.07,0.02,0,0.02,0.06c0,0.06,0,0.06,0,0.06s0.04-0.06,0,0c-0.04,0.06-0.04,0.06-0.04,0.06s0.03-0.07-0.04-0.09
		c-0.07-0.01,0.01,0-0.07-0.01c-0.09-0.01,0.03,0-0.06-0.01c-0.09-0.01-0.09-0.01-0.09-0.01s0.33-0.06,0,0
		c-0.33,0.06-0.16,0.01-0.33,0.06c-0.17,0.04,0.1-0.04-0.04,0c-0.15,0.04-0.01-0.07-0.13,0.04c-0.12,0.12,0.03-0.04-0.06,0.06
		c-0.09,0.1,0.12-0.16-0.06,0.06c-0.17,0.22,0.06,0.01-0.07,0.12c-0.13,0.1-0.04,0.09-0.1,0.1c-0.06,0.01,0.53,0.03-0.1-0.02
		c-0.63-0.04-0.52-0.02-0.58-0.03c-0.06-0.01-0.02-0.12-0.06-0.01c-0.04,0.1,0.06-0.12,0,0c-0.06,0.12,0.04-0.02-0.06,0.12
		c-0.1,0.13,0.01-0.01-0.06,0.06c-0.07,0.07,0.45-0.04-0.04,0.07c-0.49,0.12-0.38,0.03-0.43,0.09c-0.06,0.06,0.02-0.04-0.06,0.06
		c-0.07,0.1,0.14-0.04-0.01,0.06c-0.16,0.1-0.06,0.03-0.16,0.1c-0.1,0.07,0.04-0.06-0.06,0.03c-0.1,0.09-0.04,0.04-0.04,0.04
		s0.27-0.09-0.06,0.04c-0.33,0.13-0.26,0.1-0.33,0.13c-0.07,0.03,0.04,0.06-0.07,0.03c-0.12-0.03,0,0-0.06-0.01
		c-0.06-0.02,0.03-0.12-0.06-0.02c-0.09,0.1,0.1-0.12,0,0c-0.1,0.12-0.23,0.32-0.23,0.32l-0.09,0.06c0,0,0.12,0.03-0.02,0.03
		c-0.13,0-0.23,0-0.29,0c-0.06,0,0.02,0-0.06,0c-0.07,0,0,0-0.07,0c-0.07,0,0.1,0,0,0c-0.1,0,0.03-0.03-0.07,0
		c-0.1,0.03-0.06,0.03-0.1,0.03c-0.04,0,0.07-0.03-0.04,0c-0.11,0.03-0.1,0.03-0.11,0.03c-0.02,0,0.06,0-0.02,0
		c-0.07,0,0.11,0-0.07,0c-0.19,0-0.07,0-0.14,0c-0.07,0,0.03,0-0.07,0c-0.1,0,0.13,0-0.06,0c-0.19,0,0.01,0-0.1,0
		c-0.12,0,0.19,0-0.09,0s-0.13,0-0.22,0c-0.09,0,0-0.01-0.06,0c-0.06,0.01,0.03-0.03-0.03,0c-0.06,0.03,0.06-0.04-0.03,0.01
		c-0.09,0.06,0.06-0.06-0.03,0.02c-0.09,0.07-0.01,0.03-0.09,0.07c-0.07,0.04-0.01,0.04-0.07,0.04c-0.06,0,0.09-0.02,0,0
		c-0.09,0.01,0.06-0.04-0.06,0c-0.11,0.04-0.04,0.03-0.09,0.04c-0.04,0.01,0.1-0.04-0.03,0c-0.13,0.04-0.04,0.01-0.09,0.03
		c-0.04,0.01-0.04,0.01-0.04,0.01s0.04-0.03-0.04,0c-0.09,0.03,0.01,0.02-0.09,0.03c-0.1,0.02,0.01-0.01-0.06,0
		c-0.07,0.02,0.06-0.03-0.04,0.02c-0.1,0.04-0.09,0.04-0.1,0.04c-0.01,0,0.09-0.04,0,0c-0.09,0.04,0-0.03-0.09,0.04
		c-0.09,0.07-0.03,0.04-0.09,0.07c-0.06,0.03-0.06,0.03-0.06,0.03l0,0h-0.33c0,0-0.06-0.01-0.11-0.01c-0.06,0,0.04-0.03-0.06,0
		c-0.1,0.03,0-0.04-0.07,0c-0.07,0.04-0.01-0.01-0.07,0.04c-0.06,0.06-0.03,0.06-0.06,0.06c-0.03,0,0.07-0.09,0,0
		c-0.07,0.09-0.09,0.12-0.09,0.12c0,0.13,0,0.13,0,0.13l0,0l-0.04,0.02c-0.2,0.03-0.04,0.03-0.04,0.03s-0.3,0-0.35,0
		c-0.04,0-0.04,0-0.04,0s-0.01,0-0.06,0c-0.04,0-0.33,0-0.33,0l-0.1-0.03c-0.16,0.01-0.07,0-0.16,0.01c-0.09,0.01-0.06,0-0.09,0.01
		c-0.03,0.02,0.06-0.01,0,0c-0.06,0.02,0.16,0-0.03,0.02c-0.19,0.01-0.24,0.01-0.24,0.01l-0.08,0.03c0,0,0.01-0.02-0.04,0
		c-0.06,0.01-0.04-0.03-0.06,0.01c-0.01,0.04,0.1-0.12,0,0c-0.1,0.12-0.1,0.12-0.1,0.12H41l-0.04-0.01h-0.04h-0.04
		c-0.06,0-0.06,0-0.06,0l-0.2,0.04l-0.04,0.04l-0.07,0.03c0,0-0.14-0.01-0.2,0.02c-0.06,0.03-0.06,0.03-0.06,0.03s0.33-0.04,0,0
		c-0.33,0.04-0.2-0.02-0.33,0.04c-0.13,0.06-0.06,0.01-0.06,0.01s0,0-0.07,0.04c-0.07,0.04,0.14-0.07-0.07,0.04
		c-0.22,0.12,0.07-0.04-0.09,0.04c-0.16,0.09-0.09,0.04-0.13,0.07c-0.04,0.03,0.43-0.19-0.03,0.01c-0.46,0.2,0.36-0.19-0.06,0.01
		c-0.42,0.2-0.37,0.18-0.4,0.19c-0.03,0.01,0.14-0.04-0.01,0.01c-0.16,0.06,0.17-0.06-0.01,0c-0.19,0.06-0.09,0.04-0.14,0.06
		c-0.06,0.01,0.02-0.02-0.04,0c-0.06,0.01,0.2-0.07-0.06,0.01c-0.26,0.09,0.04,0.02-0.12,0.06c-0.16,0.04-0.11,0.01-0.14,0.03
		c-0.03,0.01,0.25-0.07-0.01,0.01c-0.26,0.09-0.12,0.06-0.19,0.07c-0.07,0.01-0.07,0.01-0.07,0.01s0.25-0.04,0,0
		c-0.24,0.04-0.24,0.04-0.24,0.04s0.16-0.06,0,0c-0.16,0.06,0.04-0.04-0.06,0.01c-0.1,0.06-0.1,0.04-0.1,0.04v0.01
		c0,0-0.04,0-0.09,0.01c-0.04,0.01,0.1-0.01-0.04,0.01c-0.14,0.03,0.04-0.01-0.06,0.02c-0.1,0.03,0,0-0.09,0.01
		c-0.09,0.01,0.14-0.01-0.09,0.01c-0.23,0.03,0.02-0.01-0.11,0.02c-0.13,0.03-0.03,0-0.12,0.01c-0.09,0.01,0.16-0.03-0.09,0.01
		c-0.24,0.04,0.16-0.01-0.09,0.02c-0.24,0.03,0,0.06-0.16,0.03c-0.16-0.03-0.01,0-0.13,0c-0.12,0-0.06,0-0.12,0
		c-0.06,0,0.45-0.03-0.06,0c-0.5,0.03-0.38,0-0.45,0.01c-0.07,0.01-0.06,0.01-0.06,0.01s0.56,0-0.01,0c-0.58,0-0.48,0-0.58,0
		c-0.1,0-0.04,0-0.04,0s-0.03,0-0.16,0.02c-0.13,0.02-0.04,0.02-0.09,0.02c-0.04,0,0.07-0.02-0.04,0c-0.12,0.01,0.36-0.07-0.07,0.01
		c-0.43,0.09,0.23-0.07-0.13,0.01c-0.36,0.09-0.22,0.06-0.3,0.07c-0.09,0.02,0.04,0-0.06,0.02c-0.1,0.01,0.09-0.02-0.03,0
		c-0.11,0.01,0,0.01-0.07,0.01c-0.07,0,0.2,0-0.04,0c-0.25,0-0.23-0.01-0.25,0c-0.02,0.01,0,0,0,0s0.12-0.07-0.07,0.03
		c-0.19,0.1,0.09-0.06-0.1,0.04c-0.19,0.1,0.12-0.04-0.09,0.06c-0.2,0.1,0.09-0.04-0.1,0.04c-0.19,0.09,0.1-0.06-0.1,0.06
		c-0.2,0.12,0.13-0.09-0.09,0.03c-0.22,0.12,0,0.1-0.16,0.12c-0.16,0.01,0.13-0.01-0.06,0c-0.19,0.01,0.09,0.01-0.1,0.01
		c-0.19,0,0.01,0-0.13,0c-0.14,0,0.04-0.01-0.1,0c-0.14,0.01,0.33-0.04-0.1,0c-0.43,0.04-0.27,0-0.37,0.03
		c-0.1,0.03-0.06,0.01-0.06,0.01s0.07-0.06-0.04,0.02c-0.12,0.07-0.12,0.07-0.12,0.07h-0.14c0,0,0.17-0.07-0.04,0
		c-0.22,0.07,0.16-0.1-0.07,0c-0.23,0.1,0.1,0.01-0.09,0.06c-0.19,0.04-0.07,0.03-0.14,0.04c-0.07,0.01,0.29-0.03-0.07,0.01
		c-0.36,0.04-0.06,0.03-0.23,0.04c-0.17,0.01,0.16-0.01-0.1,0c-0.26,0.01,0.1-0.03-0.26,0.01c-0.36,0.04-0.04-0.03-0.2,0.02
		c-0.16,0.04-0.01,0.01-0.12,0.03c-0.1,0.01,0.43,0.01-0.04,0.01s-0.22-0.03-0.36-0.01c-0.14,0.01-0.06,0-0.11,0.01
		c-0.06,0.02,0.16-0.04-0.03,0c-0.19,0.04,0.13-0.06-0.19,0.04c-0.32,0.1-0.1,0.06-0.32,0.1c-0.22,0.04,0.13-0.04-0.06,0
		c-0.19,0.04-0.11,0.03-0.16,0.04c-0.04,0.01,0.23-0.03-0.03,0c-0.26,0.03,0.01,0.01-0.13,0.03c-0.14,0.02-0.04,0-0.13,0
		c-0.09,0,0.35,0-0.09,0c-0.43,0-0.21,0-0.33,0c-0.12,0,0.07,0-0.1,0c-0.17,0,0.16-0.03-0.17,0c-0.33,0.03,0.1-0.03-0.13,0
		c-0.23,0.03-0.01,0-0.2,0.03c-0.19,0.03,0.07-0.03-0.19,0.03c-0.26,0.06,0.13-0.03-0.09,0.01c-0.22,0.04-0.09,0.02-0.17,0.04
		c-0.09,0.03,0.01-0.01-0.09,0.03c-0.1,0.04,0.01,0.01-0.06,0.01c-0.23,0.03-0.09-0.01-0.23,0.03c-0.14,0.04-0.1,0.04-0.1,0.04
		s0.2-0.03-0.04,0c-0.24,0.03,0.01,0-0.13,0.01c-0.14,0.02-0.03,0.02-0.12,0.02c-0.09,0,0.1-0.03-0.09,0
		c-0.19,0.03,0.03-0.02-0.1,0.01c-0.13,0.03-0.04-0.01-0.09,0.01c-0.04,0.03,0.16-0.03-0.04,0.02c-0.2,0.04-0.1,0-0.17,0.04
		c-0.07,0.04-0.07,0.04-0.07,0.04s0.1-0.09,0,0c-0.1,0.09,0.06,0.04-0.03,0.07c-0.09,0.03,0.26-0.06-0.07,0.01
		c-0.33,0.07,0.35-0.06-0.01,0.01c-0.36,0.07-0.22,0.05-0.32,0.06c-0.1,0.01,0.07,0-0.04,0.01c-0.12,0.01-0.06,0-0.12,0.01
		c-0.06,0.01,0.01-0.01-0.06,0.01c-0.07,0.03,0.12,0.01-0.07,0.03c-0.19,0.01-0.09-0.25-0.19,0.01c-0.1,0.26-0.01-0.29-0.06,0.03
		c-0.04,0.32,0.03-0.15-0.03,0.12c-0.06,0.26,0.03-0.01-0.01,0.15c-0.04,0.16-0.04-0.01-0.04,0.12c0,0.13,0.01,0,0,0.13
		c-0.01,0.13,0.06-0.06,0.01,0.06c-0.04,0.12,0-0.03-0.03,0.07c-0.03,0.1,0.06-0.07-0.01,0.04c-0.07,0.12,0.07-0.1-0.01,0.06
		c-0.09,0.16-0.03-0.12-0.06,0.06c-0.03,0.18-0.06,0.15-0.03,0.18c0.03,0.03-0.09-0.29,0.03,0.03c0.12,0.32,0.12,0.32,0.12,0.32
		s-0.06-0.2,0,0c0.06,0.2-0.01-0.03,0.03,0.1c0.04,0.13,0,0.06,0.03,0.1c0.03,0.04,0-0.03,0.02,0.03c0.01,0.06,0.01-0.2,0.01,0.02
		c0,0.22-0.01,0.02-0.01,0.12c0,0.1-0.04,0.22-0.04,0.22l0.01,0.06c0,0,0,0.04-0.01,0.09c-0.02,0.04-0.04,0.03-0.04,0.09
		c0,0.06,0.01,0.03-0.03,0.09c-0.04,0.06-0.03-0.03-0.04,0.06c-0.01,0.09-0.01-0.02-0.01,0.09c0,0.1-0.1,0.01,0,0.1
		c0.1,0.09,0.1,0.09,0.1,0.09l0,0l0.03-0.03l0.04-0.03c0,0-0.03-0.01,0.03,0c0.06,0.01,0.06-0.04,0.06,0.01c0,0.06-0.01-0.29,0,0
		c0.01,0.29-0.01,0.18,0,0.25c0.01,0.07,0.01-0.07,0.01,0.04c0,0.12,0.09-0.03,0.01,0.07c-0.07,0.1,0.04-0.01-0.01,0.04
		c-0.06,0.06,0.01-0.03-0.06,0.06c-0.07,0.09-0.04,0.06-0.04,0.06s-0.03-0.12-0.03,0.03c0,0.15-0.01-0.07,0,0.1
		c0.01,0.18,0.01,0.01,0.01,0.1c0,0.09-0.01-0.13,0,0.07c0.02,0.2,0.02-0.05,0.02,0.09c0,0.13,0,0.01,0,0.12c0,0.1,0,0.1,0,0.1
		s-0.07-0.06,0,0c0.07,0.06,0.07,0.06,0.07,0.06s0.04-0.09,0,0c-0.04,0.09-0.06-0.15-0.04,0.06c0.02,0.21-0.01-0.03,0,0.1
		c0.02,0.13,0.09,0.01,0.02,0.1c-0.07,0.09,0.01,0.06-0.03,0.07c-0.04,0.02-0.04,0.02-0.04,0.02s0.12-0.09,0,0
		c-0.11,0.09-0.01,0-0.07,0.04c-0.06,0.04-0.01-0.04-0.04,0.04c-0.03,0.09,0-0.12-0.01,0c-0.01,0.12-0.07,0-0.01,0.12
		c0.06,0.12,0.06,0.12,0.06,0.12s-0.06-0.17,0,0c0.06,0.17,0.03,0.04,0.04,0.12c0.01,0.07,0-0.17,0.01,0.06
		c0.02,0.23-0.01-0.06,0,0.1c0.02,0.16,0,0.07,0.02,0.13c0.01,0.06-0.03-0.22,0,0.03c0.03,0.25,0-0.1,0.01,0.12
		c0.01,0.22,0-0.03,0.01,0.13c0.02,0.16,0.04,0.12,0.02,0.16c-0.03,0.04-0.03-0.09-0.03,0.12c0,0.2,0-0.09,0,0.07
		c0,0.16,0,0.09,0,0.13c0,0.04-0.01-0.19,0,0.03c0.01,0.22,0.04-0.04,0.01,0.1c-0.03,0.15,0.1-0.04,0,0.07
		c-0.1,0.12,0.04-0.04-0.03,0.07c-0.19,0.34-0.01-0.31-0.07,0.04c-0.06,0.35-0.17,0.07-0.07,0.25c0.1,0.17-0.22-0.17-0.04,0.04
		c0.17,0.22-0.1-0.22,0.04,0.06c0.14,0.28,0.01-0.26,0.07,0.07c0.06,0.34,0.07-0.35,0.06,0.06c-0.01,0.41,0.1-0.42,0.02,0.09
		c-0.02,0.11-0.03,0.15-0.03,0.15c-0.01,0.02,0.06-0.52,0.01-0.09c-0.06,0.54,0.02-0.29,0,0.17c-0.01,0.47-0.14,0.06-0.07,0.28
		c0.07,0.22-0.02-0.15,0,0.04c0.01,0.19,0.11,0,0.07,0.17c-0.04,0.18-0.03-0.22-0.06,0.01c-0.03,0.23-0.06,0.01-0.01,0.16
		c0.04,0.15-0.13-0.09-0.02,0.07c0.11,0.16,0.24,0,0.11,0.12c-0.13,0.12,0.1-0.1-0.06,0.04c-0.16,0.15,0.04-0.19-0.07,0.07
		c-0.12,0.26-0.07-0.18-0.09,0.07c-0.01,0.25-0.12-0.16-0.01,0.07c0.1,0.23-0.14,0.01-0.01,0.13c0.13,0.12,0.01-0.22,0.06,0.06
		c0.04,0.28,0.08-0.48,0.07,0.06c-0.01,0.79-0.06-0.61-0.03,0.15c0.03,0.76-0.1-0.57,0,0.17c0.1,0.74-0.11-0.37,0,0.22
		c0.11,0.58-0.01-0.28,0.01,0.2c0.01,0.1,0.01,0.14,0.02,0.14c0.02,0,0.02-0.5,0-0.07c-0.03,0.55,0.09-0.35,0.02,0.16
		c-0.07,0.51,0.26-0.54,0.07,0.1c-0.19,0.64,0.2-0.73,0,0.04c-0.07,0.27-0.09,0.26-0.1,0.18c-0.01-0.16,0.06-0.63,0.03-0.09
		c-0.04,0.82-0.07-0.61-0.02,0.18c0.05,0.79-0.11-0.75-0.05,0.06c0.02,0.31,0,0.26-0.02,0.13c-0.04-0.21-0.09-0.6,0.01-0.08
		c0.11,0.56,0.05,0.56,0.01,0.49c-0.03-0.03-0.05-0.08-0.05-0.08c0.11,0.44,0.13,0.05,0.1,0.15c-0.04,0.1,0.13,0.2,0.03,0.13
		c-0.1-0.07,0,0.13,0,0.13v0.07c0,0-0.02,0.04-0.02,0.09c0,0.04,0,0.12,0,0.12l-0.01,0.07c0,0,0,0.04,0,0.09c0,0.04,0-0.07,0,0.1
		c0,0.17-0.01,0.19,0,0.23c0.01,0.04-0.01,0.04,0.01,0.1c0.03,0.06,0.06,0.12,0.06,0.12s0.01,0.03,0.01,0.07
		c0,0.04-0.03,0.07-0.03,0.12c0,0.04,0,0.04,0,0.09c0,0.04-0.04-0.06,0,0.04c0.04,0.1,0,0,0.04,0.16c0.04,0.16,0.02,0.15,0.06,0.22
		c0.04,0.07,0.04-0.03,0.04,0.07c0,0.1-0.03-0.01,0,0.1c0.03,0.12-0.02,0.07,0.03,0.16c0.04,0.09-0.01-0.1,0.04,0.09
		c0.06,0.19,0.03,0.04,0.06,0.19c0.03,0.15,0.03,0,0.03,0.15c0,0.15,0.01-0.12,0,0.15c-0.02,0.26,0.09-0.38,0,0.13
		c-0.09,0.51-0.07-0.12-0.09,0.25c-0.01,0.36,0.01,0.23,0,0.31c-0.01,0.07-0.09-0.1-0.01,0.06c0.07,0.16-0.04-0.01,0.01,0.09
		c0.06,0.1-0.04-0.09,0.06,0.07c0.1,0.16-0.03,0.01,0.04,0.1c0.07,0.09,0.01-0.09,0.06,0.06c0.04,0.15,0.04,0.15,0.04,0.15
		s-0.06-0.12,0.01,0.04c0.07,0.16,0.01,0.02,0.04,0.1c0.03,0.09-0.03-0.02,0.03,0.09c0.06,0.1,0.03,0.07,0.09,0.13
		c0.06,0.06,0.06,0.06,0.06,0.06s-0.03-0.22,0,0c0.03,0.22,0-0.1,0.02,0.09c0.01,0.19,0-0.09,0.01,0.13
		c0.01,0.22,0.01,0.16,0.01,0.22c0,0.06,0-0.25,0,0c0,0.25,0-0.09,0,0.13c0,0.22-0.01-0.12,0,0.12c0.01,0.23-0.07-0.19,0,0.07
		c0.07,0.26-0.01-0.15,0,0.1c0.01,0.25,0-0.29,0.04,0.1c0.04,0.39-0.03-0.42,0.03,0.05c0.06,0.47-0.17-0.45-0.03,0.07
		c0.14,0.52-0.25-0.44-0.02,0.12c0.23,0.55-0.19-0.38,0.07,0.19c0.26,0.57-0.23-0.58,0.03,0.12c0.06,0.16,0.08,0.22,0.08,0.21
		c0-0.01-0.22-0.67-0.01-0.11c0.27,0.73-0.13-0.45,0.11,0.18c0.25,0.63-0.3-0.34,0.04,0.23c0.35,0.57-0.34-0.25,0.06,0.23
		c0.05,0.06,0.08,0.1,0.1,0.12c0.13,0.17-0.45-0.47-0.05-0.03c0.45,0.5-0.29-0.26,0.13,0.12c0.42,0.38-0.03-0.01,0.2,0.25
		c0.23,0.26-0.01-0.22,0.07,0.07c0.09,0.29,0.13-0.23,0.07,0.06c-0.06,0.29,0.04-0.35,0.07,0c0.03,0.35,0.2,0.32,0.2,0.32
		c0.1,0.12,0.09,0.06,0.1,0.12c0.01,0.06-0.04-0.09,0,0c0.04,0.09-0.07-0.06,0.01,0.06c0.09,0.12-0.06-0.06,0.03,0.03
		c0.09,0.09,0,0.09,0.06,0.09c0.06,0-0.04-0.16,0.03,0c0.07,0.16-0.03-0.41,0.03,0c0.02,0.16,0.04,0.21,0.05,0.22
		c0.01,0,0.01-0.1,0-0.05c-0.06,0.15-0.16,0.28-0.16,0.28h-0.11l-0.17-0.2c0,0,0,0.03-0.06,0c-0.06-0.03,0-0.04-0.06-0.03
		c-0.06,0.01,0.22-0.03,0,0c-0.22,0.03-0.03,0.04-0.16,0.04c-0.13,0,0.04-0.04-0.06-0.01c-0.1,0.03,0,0.01-0.07,0.01
		c-0.07,0,0.19,0.06-0.03,0.01c-0.22-0.04,0-0.03-0.17-0.04c-0.17-0.01,0.04,0.02-0.1-0.01c-0.14-0.03,0.03,0.09-0.07,0
		c-0.1-0.09-0.03,0.15-0.07-0.03c-0.04-0.18,0.09,0.26-0.03-0.06c-0.12-0.32,0.07-0.44-0.07-0.28c-0.14,0.16,0.01-0.07-0.09,0.04
		c-0.1,0.12,0.09-0.06-0.04,0.03c-0.13,0.09,0.2,0.09-0.06,0.09c-0.33,0-0.03-0.06-0.22,0c-0.19,0.06,0.1,0.12-0.19,0.06l0,0
		c-0.29-0.06-0.13-0.06-0.23-0.06c-0.1,0-0.09,0.07-0.1,0c-0.01-0.07,0.07,0.1-0.01-0.07c-0.09-0.18,0.11,0.19,0,0
		c-0.12-0.19-0.07-0.19-0.12-0.19s-0.01,0.1-0.12,0c-0.1-0.1-0.01,0.03-0.07-0.07c-0.06-0.1,0.01,0.12-0.03-0.03
		c-0.04-0.14,0.26,0.23-0.04-0.14c-0.3-0.38-0.22-0.37-0.26-0.34c-0.04,0.03-0.07,0.04-0.07,0.04s0,0-0.07-0.01
		c-0.07-0.02-0.03,0.03-0.07-0.02c-0.04-0.05,0.07,0.03,0,0c-0.07-0.03,0.03,0.02-0.04-0.05c-0.07-0.06-0.09-0.19-0.09-0.19
		s-0.23-0.2-0.22-0.26c0.02-0.06,0.02-0.06,0.02-0.06l0.04-0.09c0,0-0.01,0.09-0.03-0.06c-0.01-0.14,0.03,0.1-0.01-0.09
		c-0.04-0.19,0.07,0.13,0-0.06c-0.07-0.19-0.02-0.08-0.04-0.13c-0.03-0.06-0.03,0-0.03-0.06c0-0.06,0,0.19,0,0
		c0-0.19,0.01,0.06,0-0.19c-0.01-0.25,0.01,0.15,0-0.09c-0.01-0.24,0,0.34-0.01-0.04c-0.01-0.38,0.04,0.25,0-0.12
		c-0.04-0.36,0.1-0.03-0.01-0.2c-0.12-0.17,0.17,0.04-0.01-0.1c-0.19-0.15,0.09,0.07-0.07-0.07c-0.16-0.15-0.01,0.07-0.11-0.07
		c-0.1-0.15,0.07,0.06-0.04-0.07c-0.11-0.13,0.03,0.01-0.06-0.07c-0.09-0.09,0.02,0.03-0.06-0.06c-0.07-0.09-0.03,0.34-0.07-0.09
		c-0.04-0.42-0.01,0.34-0.03-0.09c-0.01-0.42,0.06,0.18-0.01-0.13c-0.07-0.31,0.13-0.17,0-0.25c-0.13-0.07-0.23-0.07-0.23-0.07
		s0.06-0.12-0.04-0.19c-0.1-0.07-0.1-0.01-0.1-0.07c0-0.06-0.03,0.19,0-0.06c0.03-0.25-0.03,0.16,0-0.09
		c0.03-0.25-0.03,0.07,0.01-0.12c0.04-0.19-0.01,0.26,0.01-0.09c0.03-0.35,0.03,0.2,0.03-0.1c0-0.31,0-0.13,0-0.25
		c0-0.12,0.12,0.29,0-0.12c-0.12-0.41,0.12,0.32,0-0.04c-0.12-0.36-0.04-0.28-0.09-0.32c-0.04-0.04,0.03-0.01-0.03-0.04
		c-0.06-0.03,0.1,0.04-0.01,0c-0.11-0.04,0.04,0.16-0.11-0.04c-0.16-0.2,0.01,0.16-0.07-0.04c-0.09-0.21-0.09,0.03-0.09-0.12
		s0,0.01,0-0.09c0-0.1,0.04,0.19,0-0.06c-0.04-0.25-0.06-0.12-0.04-0.28c0.01-0.16-0.01,0,0-0.1c0.01-0.1,0,0.01,0.01-0.06
		c0.01-0.07-0.04,0.03,0-0.04c0.04-0.07,0.11-0.16,0.14-0.28c0.03-0.12,0.07,0.06,0.03-0.12c-0.04-0.18,0.11,0.01,0-0.12
		c-0.12-0.13-0.09-0.09-0.12-0.13c-0.03-0.04,0.03,0-0.03-0.04c-0.06-0.04,0.1,0.1-0.06-0.04c-0.16-0.15-0.16-0.15-0.16-0.15
		s0.01-0.06,0.03-0.15c0.02-0.09,0.02-0.18,0.02-0.18s0.07-0.03,0.01-0.03c-0.06,0,0.03-0.03-0.06,0c-0.09,0.03-0.03-0.03-0.09,0.03
		c-0.06,0.06-0.17,0.12-0.17,0.12s0.02-0.01-0.01,0.06c-0.06,0.15,0.06-0.02-0.04,0.1c-0.1,0.12,0.01,0.05-0.07,0.1
		c-0.09,0.06-0.1,0.13-0.1,0.13l-0.06,0.06c0,0,0.09-0.09-0.03,0.03c-0.11,0.12,0.01-0.04-0.06,0.06c-0.07,0.1,0-0.04-0.06,0.06
		c-0.06,0.1,0.06-0.07-0.01,0.04c-0.07,0.12-0.01-0.07-0.04,0.06c-0.03,0.13-0.04-0.12-0.03,0.06c0.01,0.18-0.04-0.1,0,0.07
		c0.04,0.17-0.03-0.06,0.01,0.1c0.04,0.16,0,0,0.03,0.1c0.03,0.1-0.01-0.04,0.01,0.06C22,31.88,22,31.84,22,31.88
		c0,0.04,0.03-0.09,0,0c-0.03,0.09,0.06-0.18-0.03,0.09c-0.09,0.26-0.06-0.12-0.07,0.09c-0.01,0.2,0.03-0.12,0,0.09
		c-0.03,0.2,0.05-0.06-0.01,0.12c-0.1,0.26,0.09-0.12-0.01,0.09c-0.1,0.2-0.04,0.03-0.07,0.12c-0.03,0.09-0.03,0.09-0.03,0.09
		s0.06-0.1,0,0c-0.06,0.1-0.12,0.15-0.12,0.15s-0.17-0.06-0.17,0.04c0,0.1,0,0.1,0,0.1s-0.03-0.03-0.03,0.12c0,0.15,0-0.01,0,0.1
		c0,0.12,0.01-0.06,0,0.12c-0.01,0.17-0.01-0.12,0,0.06c0.01,0.18-0.06-0.03-0.01,0.12c0.07,0.25-0.01-0.19,0.03,0.06
		c0.04,0.25-0.01-0.12,0.02,0.12c0.03,0.23,0.1-0.07,0.03,0.13c-0.07,0.2,0.16-0.17,0,0.1c-0.16,0.28,0.06-0.17-0.06,0.07
		c-0.12,0.25-0.04,0.09-0.1,0.2c-0.06,0.12,0.09-0.1-0.01,0.04c-0.1,0.15,0.13-0.04-0.04,0.07c-0.17,0.12-0.06,0.03-0.13,0.12
		c-0.07,0.09-0.07,0.01-0.07,0.09c0,0.07,0.04,0.1,0.09,0.19c0.04,0.09,0.06,0.06,0.04,0.09c-0.01,0.03,0.09-0.07,0,0
		c-0.09,0.07,0.13-0.1-0.01,0.03c-0.07,0.07-0.09,0.09-0.08,0.1c0,0.01,0.03,0,0.03,0s-0.02,0-0.04,0.04
		c-0.1,0.23-0.03-0.12-0.07,0.09c-0.04,0.2,0.04-0.16,0,0.06C20.99,35.18,21,34.85,21,35.05c0,0.2-0.03-0.16-0.01,0.06
		c0.01,0.22,0-0.13,0,0.09c0,0.22,0.12-0.13,0.01,0.06c-0.1,0.19,0.16-0.09,0,0.1c-0.16,0.19,0.1-0.16-0.04,0.06
		c-0.14,0.22-0.09-0.06-0.12,0.13c-0.03,0.19,0.07-0.1-0.03,0.09c-0.1,0.19-0.01,0.01-0.06,0.13c-0.04,0.12,0.01-0.13-0.04,0.12
		c-0.06,0.25,0.2-0.1,0.06,0.1c-0.14,0.2,0.06-0.15-0.09,0.1c-0.14,0.25,0.17-0.23-0.03,0.04c-0.2,0.28,0.22-0.12-0.04,0.07
		c-0.26,0.19,0.11,0.1-0.09,0.14c-0.2,0.04,0,0.07-0.12,0.06c-0.11-0.01,0,0.06-0.09-0.01c-0.09-0.07,0.06,0.12-0.03,0
		c-0.09-0.12,0,0-0.06-0.07c-0.06-0.07-0.03-0.04-0.03-0.04s0.01,0.19-0.03-0.03c-0.04-0.22-0.04-0.13-0.04-0.22
		c0-0.09-0.03,0.16,0-0.09c0.03-0.25-0.12,0.07-0.01-0.12c0.1-0.19-0.02-0.02,0.04-0.13c0.06-0.12,0.17,0.06,0.06-0.12
		c-0.12-0.18,0.11,0.18-0.03-0.04c-0.14-0.22,0.09-0.02-0.04-0.12c-0.13-0.1,0-0.1-0.1-0.1c-0.1,0,0.07,0-0.03,0
		c-0.1,0-0.03,0-0.07,0c-0.04,0,0.04-0.03-0.03,0c-0.07,0.03-0.04,0.03-0.07,0.03c-0.03,0,0.13-0.13,0,0
		c-0.13,0.13-0.14,0-0.13,0.09c0.01,0.09-0.06-0.04,0,0.04c0.06,0.09-0.1-0.06,0.01,0.04c0.12,0.1,0.09-0.1,0.12,0.1
		c0.03,0.2,0.04-0.13,0.03,0.06c-0.02,0.19,0.05,0.11,0,0.15c-0.07,0.04,0.04,0.06-0.07,0.04c-0.12-0.02,0.07-0.02-0.04-0.02
		c-0.11,0,0.13,0.02-0.11,0c-0.24-0.02-0.01,0.03-0.19-0.03c-0.17-0.06,0.07,0.13-0.06,0.01c-0.13-0.12-0.07,0.06-0.12-0.07
		c-0.04-0.13,0.06,0.06-0.04-0.09c-0.1-0.14-0.01-0.04-0.06-0.12c-0.04-0.07-0.04,0.25-0.04-0.03c0-0.28,0.06-0.09,0-0.24
		c-0.06-0.15-0.09-0.19-0.09-0.19s-0.03,0.12-0.04-0.04C19,34.9,19,34.9,19,34.9s0.01,0.2-0.01-0.1c-0.03-0.31,0,0.15-0.01-0.09
		c-0.01-0.23-0.01-0.22-0.01-0.22s0.03,0.2,0-0.01c-0.03-0.22-0.09,0.2-0.03-0.06c0.06-0.26-0.1,0.1-0.01-0.1
		c0.09-0.2,0.06-0.12,0.07-0.16c0.01-0.04-0.07-0.01,0.01-0.04c0.09-0.03,0.07,0.12,0.09-0.03c0.01-0.15-0.01-0.15,0.01-0.2
		c0.03-0.06-0.04-0.01,0.03-0.06c0.07-0.04-0.13,0.01,0.03-0.04c0.16-0.06,0.13-0.04,0.16-0.06c0.03-0.01,0.14-0.13,0.14-0.13
		s-0.03,0,0-0.07c0.03-0.07,0.03-0.07,0.03-0.07l0.12-0.19V33.2c-0.09-0.12-0.06-0.03-0.07-0.07c-0.01-0.04-0.01-0.04-0.01-0.04
		s0.01,0.06,0,0c-0.01-0.06,0.11,0.1-0.01-0.06c-0.13-0.16-0.01,0.06-0.09-0.07c-0.07-0.13-0.07-0.06-0.07-0.13
		c0-0.07-0.01,0.02,0-0.07c0.01-0.09,0-0.04,0.01-0.09c0.01-0.04-0.01,0.13,0.01-0.04c0.03-0.18,0,0.06,0.01-0.06
		c0.02-0.12,0.02-0.09,0.02-0.12c0-0.03,0,0,0,0s-0.04-0.09,0-0.22c0.04-0.13-0.12,0.06,0.04-0.13c0.16-0.19-0.16,0.09,0.01-0.07
		c0.17-0.16-0.13,0.1,0.07-0.07c0.2-0.17,0.1-0.06,0.16-0.13c0.06-0.07,0.04-0.04,0.04-0.04s0,0.04,0.01-0.03
		c0.01-0.07,0,0.1,0.01-0.07c0.01-0.18-0.04,0.09-0.01-0.09c0.03-0.18,0.03,0.12,0.03-0.09c0-0.2-0.09-0.04,0-0.2
		c0.09-0.16-0.03-0.01,0.04-0.12c0.07-0.1-0.04,0.13,0.04-0.04c0.09-0.18,0-0.07,0.09-0.18c0.09-0.1,0.03-0.04,0.09-0.1
		c0.06-0.06,0.06-0.06,0.06-0.06s-0.21,0.01,0.04-0.03c0.26-0.04,0.07,0,0.07,0s0.06,0,0.14-0.03c0.09-0.03-0.04-0.03,0.06-0.03
		c0.1,0,0,0.03,0.07,0c0.07-0.03,0.07-0.03,0.07-0.03s-0.1,0.09,0,0c0.1-0.09,0.06-0.02,0.06-0.02s0.03-0.01,0.04-0.07
		c0.01-0.06,0.01-0.12,0.01-0.12s0.07-0.06,0-0.15c-0.07-0.09,0.1-0.03-0.07-0.09c-0.17-0.06-0.12-0.01-0.17-0.06
		C20.37,30.13,20.24,30,20.24,30v-0.06c0-0.06,0-0.06,0-0.06l0,0l-0.04-0.07l-0.01-0.04c-0.01-0.13-0.03-0.09-0.01-0.13
		c0.01-0.04,0,0,0,0s-0.01,0.06,0.01-0.04c0.03-0.1,0.01,0.09,0.01-0.04c0-0.13,0.03,0.01,0.01-0.06c-0.01-0.07-0.01-0.1-0.01-0.1
		l0.03-0.04l0.01-0.04c0,0-0.09-0.09,0-0.19c0.09-0.1-0.04-0.01,0.04-0.09c0.09-0.07,0.07-0.03,0.09-0.07
		c0.01-0.04,0.03,0.02,0.01-0.04c-0.01-0.06-0.01-0.06-0.01-0.06l0.07-0.09c0.01-0.06,0.01-0.06,0.01-0.06s-0.06,0.06,0,0
		c0.06-0.06,0.01,0,0.06-0.06c0.04-0.06,0,0,0,0s0.01,0.13,0.04-0.06c0.03-0.19-0.04,0.09,0-0.07c0.04-0.16,0.01,0.01,0.03-0.12
		c0.04-0.29,0.04,0.16,0.04-0.12c0-0.28,0.02-0.07,0-0.17c-0.01-0.1,0-0.1,0-0.1s-0.07,0.16-0.01,0c0.06-0.16,0.01,0,0.04-0.09
		c0.03-0.09,0.01-0.07,0.01-0.07l0.01-0.02l-0.09-0.17c0-0.07,0.01-0.03,0-0.07c-0.01-0.04-0.01-0.04-0.01-0.04l0.03-0.13
		c0,0-0.01-0.01,0.01-0.06c0.03-0.04,0,0.03,0.03-0.04c0.03-0.07,0.01-0.02,0.03-0.07c0.01-0.06,0.01-0.06,0.01-0.06l0,0l0.04-0.1
		c0-0.12,0-0.03,0-0.07c0-0.04,0-0.04,0-0.04s0.14-0.07,0.32-0.32c0.17-0.25,0.07-0.13,0.13-0.19c0.06-0.06,0.04-0.06,0.04-0.06
		s0.01,0.13,0.01,0c0-0.13-0.03,0.09-0.01-0.06c0.01-0.15,0,0.06,0.01-0.07c0.01-0.13-0.03,0,0-0.07c0.03-0.07-0.03,0.01,0.01-0.06
		c0.04-0.07-0.03,0.06,0.02-0.01c0.04-0.07-0.02,0.03,0.03-0.06c0.04-0.09,0.03,0.01,0.04-0.09c0.02-0.1-0.01-0.01,0-0.06l0.03-0.12
		l0.03-0.08c0-0.14,0-0.18,0-0.18v0.07V25.4c0.03-0.16-0.03-0.05,0.03-0.16c0.05-0.11-0.03,0.19,0.05-0.11
		c0.08-0.3,0.03-0.14,0.03-0.14s0,0.08,0.03-0.08c0.03-0.16,0.03,0.03,0.03-0.08c0-0.11,0.03-0.03,0-0.11
		c-0.03-0.08-0.03-0.08-0.03-0.08l0,0l-0.03-0.14c0,0,0.03-0.08,0.13-0.13c0.11-0.06-0.09-0.07,0.03-0.13
		c0.13-0.08,0,0.24,0.08,0.08c0.08-0.16,0.05-0.16,0.05-0.16s0,0.11,0.03,0c0.03-0.11-0.27,0.27,0.03-0.11
		c0.29-0.38,0.11,0.22,0.16-0.19c0.05-0.41,0.24,0.05,0.13-0.19c-0.11-0.24-0.08-0.22-0.08-0.22l-0.03-0.03c0,0,0,0.05-0.03-0.08
		c-0.03-0.14-0.03,0.03-0.03-0.14c0-0.16,0,0,0-0.08c0-0.08,0-0.08,0-0.08s-0.05,0.27,0,0c0.05-0.27-0.05,0,0-0.13
		c0.05-0.14,0.05-0.14,0.05-0.14s-0.05-0.08,0.03-0.16c0,0,0.03,0.03,0.08-0.11c0.05-0.14,0.05-0.14,0.05-0.14l0,0l0.16-0.19
		c0.05-0.13,0.05-0.13,0.05-0.13s-0.11,0.24,0,0c0.11-0.24-0.05-0.03,0.03-0.13l0.08-0.11l0.03-0.16c-0.19-0.16-0.03,0.05-0.11-0.11
		c-0.08-0.16-0.08,0.16-0.08-0.05c0-0.22,0,0.08,0-0.11c0-0.19-0.03,0.05,0-0.11c0.03-0.16-0.03,0,0-0.08
		c0.03-0.08,0.03-0.08,0.03-0.08l0,0l-0.03-0.16c0.05-0.19-0.08,0.11,0.03-0.08c0.11-0.19-0.08,0,0.03-0.11
		c0.11-0.11,0.05,0,0.08-0.08c0.03-0.08,0.03-0.03,0.03-0.03l-0.03-0.22c0,0-0.03,0-0.11-0.08c-0.08-0.08-0.08-0.08-0.08-0.08
		s0.13,0.05,0,0c-0.13-0.05-0.13-0.05-0.13-0.05l-0.08-0.16h-0.19c0,0,0.19,0-0.08,0c-0.27,0,0.11-0.05-0.13,0
		c-0.24,0.05,0.03-0.05-0.13,0c-0.16,0.05,0.03,0.05-0.11,0.05s-0.05,0-0.05,0h-0.08L21,19.99l-0.16,0.11
		c-0.21-0.03,0.05-0.05-0.21-0.03c-0.27,0.03-0.21,0-0.21,0l-0.05,0.03c-0.16-0.05-0.16-0.05-0.16-0.05l-0.05-0.05
		c0,0,0.05,0.05-0.08,0c-0.13-0.05-0.13-0.05-0.13-0.05l0,0c0,0,0.03-0.05-0.08-0.03c-0.11,0.03,0.05,0.03-0.11,0.03
		c-0.16,0,0.29-0.03,0,0c-0.29,0.03,0-0.03-0.16,0c-0.16,0.03-0.03,0-0.13,0.03c-0.11,0.03,0.03-0.05-0.11,0.03
		c-0.13,0.08-0.13,0.08-0.13,0.08s0.48-0.16,0,0c-0.48,0.16-0.11,0.08-0.37,0.13c-0.27,0.05,0.08-0.03-0.11,0.03
		c-0.19,0.05,0.08-0.05-0.16,0.03c-0.24,0.08-0.03,0.03-0.03,0.03s-0.05-0.05-0.13,0c-0.08,0.05-0.08,0.05-0.08,0.05l-0.19,0.03
		c0,0,0.03-0.05-0.08-0.05c-0.11,0,0.32,0.05-0.11,0c-0.43-0.05,0.27,0-0.11-0.03c-0.37-0.03,0.19-0.03-0.13-0.03
		c-0.32,0,0.19,0-0.16,0c-0.35,0,0.19,0-0.16,0c-0.35,0,0.88,0-0.05,0c-0.93,0,0.64,0.03-0.16,0c-0.8-0.03-0.53,0.03-0.67,0
		c-0.13-0.03-0.13-0.03-0.13-0.03l0,0c0,0-0.13-0.03-0.37-0.03c0,0-0.03-0.03-0.16-0.03c-0.13,0-0.03-0.03-0.13,0
		c-0.11,0.03,0.13-0.03,0,0c-0.13,0.03,0.08,0.03-0.11,0.03c-0.19,0,0.03,0-0.11,0c-0.13,0,0.08,0-0.08,0c-0.16,0,0.19-0.03-0.16,0
		c-0.35,0.03,0.03,0.08-0.21,0.05c-0.24-0.03,0.16-0.05-0.13-0.03c-0.4,0.03,0-0.03-0.21,0c-0.21,0.03-0.11,0.03-0.19,0.03
		c-0.08,0,0.12-0.05-0.03,0c-0.15,0.05,0.04,0.05-0.15,0.05c-0.2,0,0.02,0-0.12,0c-0.13,0,0.05,0-0.08,0c-0.13,0,0.27,0-0.13,0
		c-0.4,0,0.16,0-0.13,0c-0.29,0,0.53-0.03-0.19,0c-0.72,0.03,0.53-0.05-0.11,0c-0.64,0.05-0.56,0.05-0.64,0.05c-0.08,0-0.29,0-0.4,0
		c-0.11,0-0.11,0-0.11,0l0,0c0,0,0.08,0-0.08-0.03c-0.16-0.03,0.05,0-0.16-0.03c-0.21-0.03-0.11-0.03-0.11-0.03
		c-0.32,0,0.27,0-0.11,0c-0.37,0,0,0.03-0.21,0c-0.21-0.03-0.16,0-0.16,0s0.11,0.03-0.05-0.03c-0.16-0.05,0.14-0.02-0.08-0.05
		c-0.29-0.05,0.08,0-0.16-0.03c-0.24-0.03,0.61-0.05-0.13-0.03c-0.75,0.03,0.64-0.05-0.11,0c-0.75,0.05-0.53,0-0.64,0.03
		c-0.11,0.03-0.11,0.03-0.11,0.03h-0.16c0,0,0,0-0.27,0c-0.27,0-0.21,0-0.27,0c-0.05,0,0.19,0.05,0,0
		c-0.19-0.05-0.05,0.03-0.19-0.05c-0.13-0.08,0,0,0,0s-0.08-0.08-0.13-0.08c-0.16,0-0.16,0-0.16,0S8.98,20.1,8.9,20.1
		c-0.08,0,0.4,0.03-0.08,0c-0.48-0.03,0.29,0.03-0.11,0c-0.4-0.03,0.56,0.03-0.19,0c-0.75-0.03,0.43-0.03-0.21-0.03
		c-0.64,0-0.29,0-0.53,0c-0.24,0,0.59,0-0.11,0c-0.77,0-0.48,0.03-0.64,0c-0.16-0.03,0.03,0.08-0.13,0
		c-0.16-0.08-0.11-0.03-0.16-0.08c-0.05-0.05,0.24,0.03-0.05-0.05c-0.29-0.08-0.08,0-0.08,0s0.4-0.03-0.05-0.05
		c-0.45-0.03,0.32,0-0.13-0.03c-0.45-0.03,0.27,0.05-0.16,0c-0.43-0.06,0.13,0.05-0.21,0c-0.35-0.06,0.13,0-0.13-0.03
		c-0.27-0.03,0-0.03-0.21-0.03c-0.21,0,0.24,0-0.05,0c-0.29,0,0.05,0-0.16,0c-0.21,0-0.13,0.06-0.21,0
		c-0.08-0.05,0.05-0.05-0.08-0.05s0,0-0.13,0c-0.13,0,0.11,0.11-0.13,0c-0.24-0.11,0.05,0-0.11-0.05c-0.16-0.05,0.21-0.03-0.08-0.05
		c-0.29-0.03,0.19,0.05-0.08,0c-0.27-0.05,0.03,0.05-0.16-0.03c-0.19-0.08-0.11-0.03-0.11-0.03l-0.08-0.05l-0.16-0.06l-0.21-0.13
		c-0.32-0.16-0.11-0.03-0.11-0.03s0.13-0.05-0.13-0.11c-0.27-0.05,0.11-0.03-0.13-0.03c-0.24,0,0.08-0.05-0.13-0.03
		c-0.21,0.03,0.11,0.03-0.21,0.03c-0.32,0-0.08,0.05-0.32,0c-0.24-0.05,0.03,0.13-0.16-0.03C2.56,19,2.8,19.27,2.67,19.13
		C2.53,19,2.61,19.1,2.56,19c-0.05-0.11,0.16,0.13-0.05-0.11c-0.21-0.24-0.08,0.03-0.16-0.13c-0.08-0.16,0.03,0-0.05-0.11
		c-0.08-0.11,0.08,0-0.03-0.05c-0.11-0.05,0.08-0.03-0.05-0.05c-0.13-0.03-0.05,0-0.05,0s0.08,0.11-0.08-0.03
		c-0.16-0.14-0.16-0.14-0.16-0.14l0,0l-0.03-0.08H1.76H1.65c0,0,0.08-0.03-0.03-0.08c-0.11-0.06-0.05,0.03-0.11-0.06
		c-0.05-0.08,0.16,0.24-0.05-0.08c-0.21-0.32,0.05,0.14-0.11-0.11c-0.16-0.24-0.05-0.11-0.05-0.11S1.47,18,1.25,17.78
		c-0.21-0.22,0.19,0.13-0.05-0.08c-0.24-0.22,0.03,0.11-0.11-0.08c-0.13-0.19-0.13-0.14-0.13-0.14s0.03,0.11,0-0.05
		c-0.03-0.16,0.08-0.11-0.03-0.16c-0.11-0.06,0,0.27-0.11-0.06c-0.02-0.05-0.03-0.09-0.04-0.11c-0.04-0.11,0.04,0.11,0.04,0.11
		s0.01-0.1-0.07-0.22c-0.09-0.13-0.01-0.05-0.09-0.13c-0.08-0.08-0.08-0.03-0.08-0.08c0-0.05,0,0.11,0,0c0-0.11,0,0.11,0-0.11
		c0-0.21-0.08,0.11-0.03-0.11c0.05-0.21,0,0.05,0.03-0.11c0.03-0.16,0.03-0.16,0.03-0.16l0,0c0,0,0.03-0.16,0.11-0.22
		c0.08-0.05,0.08-0.05,0.08-0.05h0.27h0.05H1.2C1.28,16.08,1.4,16.12,1.51,16.14L1.51,16.14z"/>
	<g>
		<path class="st5" d="M55.4,15.56c-0.33-0.23-0.73-0.73-0.86-1.22c-0.11,0.5-0.48,1.03-0.92,1.33l-0.28-0.32
			c0.53-0.34,0.98-1.07,0.98-1.97v-0.76h0.44v0.76c0,0.87,0.42,1.54,0.92,1.86L55.4,15.56z M55.92,16.46v-2.3h-0.71v-0.37h0.71V12.3
			h0.43v4.16H55.92z M56.8,16.68v-4.48h0.44v4.48H56.8z"/>
		<path class="st5" d="M60.22,14.57c-0.41-0.18-0.83-0.55-1.02-0.99c-0.13,0.47-0.59,0.89-1.08,1.12l-0.28-0.36
			c0.64-0.27,1.11-0.81,1.11-1.52V12.4h0.46v0.41c0,0.71,0.55,1.23,1.06,1.4L60.22,14.57z M59.95,16.68c-0.95,0-1.51-0.33-1.51-0.88
			c0-0.54,0.56-0.88,1.51-0.88c0.95,0,1.51,0.34,1.51,0.88C61.46,16.34,60.9,16.68,59.95,16.68z M58.91,15.8
			c0,0.32,0.4,0.51,1.04,0.51c0.65,0,1.05-0.19,1.05-0.51c0-0.32-0.4-0.5-1.05-0.5C59.3,15.3,58.91,15.48,58.91,15.8z M61.4,13.74
			v1.18h-0.46v-2.73h0.46v1.17h0.67v0.37H61.4z"/>
	</g>
	<g>
		<path class="st5" d="M62.41,14.48v-0.37h4.05v0.37H62.41z M62.87,16.65v-1.1h2.63v-0.32h-2.64v-0.37h3.09v1.03h-2.63v0.38h2.8
			v0.37H62.87z M64.44,13.84c-0.96,0-1.54-0.29-1.54-0.79c0-0.51,0.58-0.8,1.54-0.8c0.97,0,1.55,0.29,1.55,0.8
			C65.99,13.55,65.41,13.84,64.44,13.84z M63.37,13.05c0,0.25,0.42,0.43,1.07,0.43c0.67,0,1.09-0.17,1.09-0.43
			c0-0.26-0.42-0.43-1.09-0.43C63.78,12.62,63.37,12.79,63.37,13.05z"/>
		<path class="st5" d="M68.34,15.56v-2.99h0.45v1.12h1.2v-1.12h0.46v3H68.34z M69.98,14.06h-1.2v1.14h1.2V14.06z M71.66,14.33v2.35
			h-0.45v-4.48h0.45v1.75h0.71v0.38H71.66z"/>
	</g>
	<g>
		<path class="st5" d="M76.24,14.35h0.64v0.37h-1.8v1.96h-0.46v-1.96h-1.79v-0.37h1.07c0.1-0.37,0.21-1,0.21-1.49h-0.96v-0.36h1.42
			c0,0.65-0.1,1.32-0.22,1.86h1.45c0.09-0.38,0.16-1.03,0.16-1.49h-1.04v-0.36h1.49C76.42,13.14,76.35,13.81,76.24,14.35z"/>
	</g>
	<g>
		<path class="st5" d="M77.4,14.85v-0.37h4.05v0.37H77.4z M77.94,16.58v-1.33h0.45v0.95h2.63v0.37H77.94z M77.95,13.95v-1.57h0.45
			v1.2H81v0.37H77.95z"/>
		<path class="st5" d="M85.63,15.6c-0.4-0.28-0.92-0.81-1.08-1.33c-0.16,0.55-0.6,1.12-1.11,1.45l-0.28-0.33
			c0.67-0.43,1.15-1.21,1.15-2.03v-0.76h0.47v0.74c0,0.84,0.5,1.57,1.12,1.93L85.63,15.6z M86.44,16.68v-4.48h0.45v4.48H86.44z"/>
		<path class="st5" d="M87.84,14.67V12.6h2.14v2.06H87.84z M89.54,12.97h-1.24v1.34h1.24V12.97z M88.35,16.54v-1.4h0.46v1.04h2.58
			v0.36H88.35z M90.84,15.45v-3.26h0.46v3.26H90.84z"/>
		<path class="st5" d="M93.43,15.67c-0.51,0.03-0.98,0.04-1.34,0.04l-0.07-0.39c0.43,0,0.95-0.01,1.48-0.03
			c0.64-0.03,1.16-0.06,1.52-0.1l0.05,0.36C94.66,15.6,94,15.64,93.43,15.67z M93.49,14.63c-0.66,0-1.17-0.42-1.17-1.02
			c0-0.62,0.51-1.06,1.17-1.06c0.66,0,1.17,0.42,1.17,1.06C94.67,14.23,94.14,14.63,93.49,14.63z M93.49,12.93
			c-0.39,0-0.72,0.28-0.72,0.67c0,0.38,0.32,0.65,0.72,0.65c0.39,0,0.73-0.26,0.73-0.65C94.22,13.19,93.9,12.93,93.49,12.93z
			 M95.76,12.19v4.48h-0.45v-4.48H95.76z"/>
		<path class="st5" d="M97.9,13.3v-0.37h2.67v0.37H97.9z M99.23,14.96c-0.61,0-1.07-0.3-1.07-0.74c0-0.45,0.46-0.74,1.07-0.74
			c0.62,0,1.08,0.29,1.08,0.74C100.31,14.67,99.85,14.96,99.23,14.96z M98.58,16.62v-1.43h2.93v1.43H98.58z M98.6,12.65v-0.37h1.3
			v0.37H98.6z M99.23,13.83c-0.32,0-0.6,0.15-0.6,0.39c0,0.24,0.28,0.39,0.6,0.39c0.33,0,0.62-0.15,0.62-0.39
			C99.84,13.98,99.56,13.83,99.23,13.83z M101.05,15.55h-2.02v0.71h2.02V15.55z M101.05,14.94v-2.75h0.46v2.75H101.05z"/>
	</g>
</g>
</svg>
