<?xml version="1.0" encoding="utf-8"?>
<!-- Generator: Adobe Illustrator 26.1.0, SVG Export Plug-In . SVG Version: 6.00 Build 0)  -->
<svg version="1.1" id="nav-logo" xmlns="http://www.w3.org/2000/svg" xmlns:xlink="http://www.w3.org/1999/xlink" x="0px"
	 y="0px" viewBox="0 0 132 40" style="enable-background:new 0 0 132 40;" xml:space="preserve">
<style type="text/css">
	.st0{fill:#fff;}
</style>
<g>
	<path class="st0" d="M30.39,1.08l-6.29,0.06l-3.8,22L9.21,23.19L6.3,40l17.37-0.06l4.15-23.98l2.7-0.01l0.91-5.24l-2.7,0.01
		L30.39,1.08z M18.51,34.31l-5.84,0.02l0.86-4.96l5.84-0.02L18.51,34.31z"/>
	<polygon class="st0" points="13.9,21.31 18.24,18.4 14.79,9.94 19.73,9.93 20.54,5.24 14.63,5.26 15.34,1.13 8.9,1.15 8.17,5.37 
		2.26,5.39 1.44,10.12 6.53,10.11 0,18.46 3.1,21.35 10.02,13.86 	"/>
	<polygon class="st0" points="77.11,23.37 71.72,23.39 68.88,39.79 85.95,39.74 86.9,34.23 75.22,34.26 	"/>
	<polygon class="st0" points="100.3,10.35 112.13,10.31 113.04,5.07 95.77,5.13 93.18,20.43 110.24,20.38 111.07,15.55 99.4,15.59 	
		"/>
	<polygon class="st0" points="125.75,0.76 124.13,10.13 121.13,10.14 122.75,0.77 116.77,0.79 112.05,28.91 118.19,28.88 
		120.36,16.35 123.2,16.34 121.06,28.74 126.3,28.72 131.14,0.75 	"/>
	<path class="st0" d="M55.87,7.74L50.3,7.89c-1.31-2-3.65-3.29-6.54-3.28c-5,0.02-9.73,3.92-10.56,8.71
		c-0.83,4.79,2.55,8.67,7.55,8.65c3.02-0.01,5.93-1.43,7.95-3.61l5.47-0.02l-1.79,10.34l5.84-0.02L63,1.11l-5.98,0.02L55.87,7.74z
		 M46.37,13.35c-0.35,2.02-2.37,3.66-4.52,3.66c-2.15,0.01-3.61-1.62-3.26-3.64c0.35-2.02,2.37-3.66,4.52-3.66
		C45.26,9.71,46.72,11.33,46.37,13.35z M54.57,14.36l-3.52,0.01c0.11-0.36,0.2-0.73,0.26-1.1c0.08-0.47,0.12-0.93,0.12-1.38
		L55,11.88L54.57,14.36z"/>
	<path class="st0" d="M85.91,6.64l-5.57,0.15c-1.31-2.01-3.65-3.29-6.53-3.28c-5,0.02-9.73,3.92-10.56,8.71
		c-0.83,4.79,2.56,8.67,7.56,8.65c3.01-0.01,5.92-1.43,7.95-3.61l5.47-0.02l-1.79,10.34l5.84-0.02L93.04,0l-5.98,0.02L85.91,6.64z
		 M76.42,12.25c-0.35,2.02-2.38,3.66-4.52,3.66c-2.15,0.01-3.61-1.62-3.26-3.64c0.35-2.02,2.38-3.66,4.53-3.67
		C75.3,8.6,76.76,10.23,76.42,12.25z M84.63,13.25l-3.53,0.01c0.11-0.36,0.2-0.73,0.27-1.1c0.08-0.47,0.12-0.93,0.12-1.38l3.57-0.01
		L84.63,13.25z"/>
</g>
</svg>
